<?xml version="1.0" encoding="UTF-8"?>
<!DOCTYPE svg PUBLIC "-//W3C//DTD SVG 1.1//EN" "http://www.w3.org/Graphics/SVG/1.1/DTD/svg11.dtd">
<!-- Creator: CorelDRAW 2020 (64-Bit) -->
<svg xmlns="http://www.w3.org/2000/svg" xml:space="preserve" width="106.892mm" height="86.4306mm" version="1.1" style="shape-rendering:geometricPrecision; text-rendering:geometricPrecision; image-rendering:optimizeQuality; fill-rule:evenodd; clip-rule:evenodd"
viewBox="0 0 10689.16 8643.06"
 xmlns:xlink="http://www.w3.org/1999/xlink"
 xmlns:xodm="http://www.corel.com/coreldraw/odm/2003">
 <defs>
  <style type="text/css">
   <![CDATA[
    .str0 {stroke:#686868;stroke-width:7.62;stroke-miterlimit:22.9256}
    .str1 {stroke:#B1B1B1;stroke-width:7.62;stroke-miterlimit:22.9256}
    .fil0 {fill:none;fill-rule:nonzero}
    .fil1 {fill:#646464;fill-rule:nonzero}
    .fil2 {fill:#6C6C6C;fill-rule:nonzero}
   ]]>
  </style>
 </defs>
 <g id="Layer_x0020_1">
  <metadata id="CorelCorpID_0Corel-Layer"/>
  <g id="_3128121342064">
   <g>
    <path class="fil0 str0" d="M4651.39 2598.48c-16.77,7.11 -32.75,15.76 -47.97,26.03 -22.1,14.91 -32.45,39.02 -52.08,54.93 -22.32,18.08 -49.29,31.98 -73.38,50.37 -30.83,23.41 -64.36,45.58 -100.75,66.67 -11.66,6.73 -26.03,11.59 -43.1,14.6 -16,2.86 -30.13,11.2 -44.27,18.7 -24.18,12.9 -49.13,0 -71.85,-9.19 -4.09,-1.71 -8.65,1.31 -8.72,5.71 -1.16,47.75 -19.94,87.6 -56.25,119.67 -2.7,2.4 -5.95,3.56 -9.58,3.32 -15.84,-1 -31.13,-2.94 -45.97,-5.95 -45.96,-9.19 -90.92,-18.92 -134.72,-29.2 -13.37,-3.16 -30.6,-4.1 -42.88,3.24 -55.55,33.38 -105.45,93.41 -140.06,147.48 -52.69,82.43 -116.35,166.72 -157.99,250.62 -18.93,38.08 -37.31,80.49 -55.23,127.31 -16.54,43.19 -39.4,82.05 -58.56,124.23 -6.88,15.14 -15.76,25.57 -26.58,31.36 -44.89,23.87 -42.57,70.85 9.66,83.36"/>
   </g>
   <g>
    <path class="fil0 str1" d="M3491.11 3681.74c2.7,13.21 8.49,22.87 17.45,28.97 18.24,12.44 40.02,16.53 65.36,12.29"/>
   </g>
   <g>
    <path class="fil0 str0" d="M3573.92 3723c-41.33,20.93 -70.15,39.16 -86.52,54.77 -67.29,64.05 -56.86,143.69 -17.7,219.56 16.77,32.44 31.6,64.89 44.66,97.34"/>
   </g>
   <g>
    <path class="fil0 str0" d="M4711.64 4218.12c13.06,-18.31 23.88,-30.13 32.53,-35.61 23.72,-14.92 47.51,-30.13 71.47,-45.59 44.34,-28.66 97.34,-30.89 133.87,-72.77 16.69,-19.08 32.69,-40.02 47.91,-62.65 26.88,-39.87 60.72,-40.95 102.58,-48.75 31.6,-5.87 62.04,-19.39 91.32,-40.56 2.63,-1.86 3.17,-5.48 1.23,-8.11 -17.99,-24.33 -32.83,-49.83 -44.49,-76.63 -14.91,-34.39 -38.08,-59.1 -61.65,-85.37 -16.61,-18.62 -20.78,-39.25 -12.36,-61.89"/>
   </g>
   <g>
    <line class="fil0 str1" x1="5497.09" y1="3771.51" x2="5488.36" y2= "3768.04" />
   </g>
   <g>
    <line class="fil0 str0" x1="5116.85" y1="3591.58" x2="5116.93" y2= "3573.43" />
   </g>
   <g>
    <path class="fil0 str0" d="M5115.31 3540.29c-2.56,-1.39 -5.18,-2.39 -7.96,-3.1 -1.32,-0.3 -1.4,-0.76 -0.24,-1.46 0.24,-0.15 0.39,-0.39 0.39,-0.62 0.23,-1.54 -0.39,-2.63 -1.86,-3.16 -23.02,-9.05 -43.33,-21.71 -60.95,-38.17"/>
   </g>
   <g>
    <path class="fil0 str1" d="M4782.1 2960.41c-0.53,-1.7 -0.69,-3.01 -0.62,-3.86"/>
   </g>
   <g>
    <path class="fil0 str1" d="M5317.63 3623.57c-2.09,0.08 -4.63,-0.62 -7.49,-2.08"/>
   </g>
   <g>
    <path class="fil0 str0" d="M5876.59 4109.43c2.69,-1.24 2.69,-6.96 -0.05,-12.83 -2.67,-5.88 -7.08,-9.58 -9.73,-8.35 -2.68,1.24 -2.68,6.96 0.06,12.82 2.67,5.88 7.08,9.59 9.72,8.36z"/>
   </g>
   <g>
    <path class="fil0 str0" d="M5054.74 4963.4c-6.49,-10.28 -9.5,-21.1 -9.05,-32.6 0.86,-21.95 -2.08,-42.88 -8.96,-62.89 -0.69,-1.78 -1.92,-2.78 -3.86,-2.86 -0.84,0 -1.46,0.3 -2,0.85 -1.32,1.39 -1.86,3.01 -1.7,4.86 2.46,30.13 1.46,60.26 -3.09,90.47 -5.18,34.84 1,69.07 11.12,101.2 2.01,6.34 10.43,7.58 14.13,2.09 7.89,-11.67 18.32,-21.4 31.22,-29.2 7.49,-4.56 14.52,-3.94 21.08,1.78 1.4,1.15 2.56,2.54 3.48,4.01 3.79,6.11 2.56,11.05 -3.7,14.68 -40.56,23.95 -72.47,55.94 -118.51,72.31 -7.73,2.78 -10.82,12.05 -6.26,18.85 9.82,14.6 21.09,28.67 33.84,42.18 14.29,15.06 19.08,12.52 14.44,-7.72l-9.27 -40.49c-0.62,-2.7 1.39,-5.25 4.17,-5.25l12.29 0c3.32,0 4.94,1.62 4.94,4.94 0.16,35.93 -5.56,88.23 11.9,121.06 52.23,98.43 108.39,207.74 22.02,304.08 -26.12,29.12 -52.93,55.15 -82.2,80.35 -1.86,1.54 -2.93,3.86 -3.09,6.25 -4.01,70.68 -2.86,143.93 -7.26,213.15 -3.25,51.37 -6.87,100.66 -10.82,147.7 -0.93,10.9 4.09,16 14.99,15.15 28.97,-2.16 57.71,-7.03 86.37,-5.18 29.28,1.93 58.1,2.94 86.37,3.16 49.14,0.47 97.95,7.73 147.09,15.84 21.55,3.64 40.64,11.52 57.09,23.65 2.09,1.54 3.25,3.63 3.48,6.17l2.63 35.54c0.62,8.27 5.02,12.67 13.28,13.37l39.25 3.17c9.04,0.69 12.9,-3.41 11.51,-12.37 -3.78,-24.8 -13.21,-46.27 5.95,-68.28 23.49,-27.2 45.2,-47.75 61.26,-81.28 1.16,-2.4 1.32,-4.94 0.54,-7.5 -22.02,-73 -38.93,-138.2 -50.75,-195.6 -19.85,-96.11 -22.79,-203.26 -8.97,-321.46 10.2,-86.68 43.03,-161.77 89.54,-233.3 1.47,-2.4 2.25,-4.95 2.25,-7.73 0.07,-37.71 5.4,-66.59 16.06,-86.69 25.42,-48.05 48.36,-97.03 68.84,-147.01 10.5,-25.88 27.26,-49.28 52.68,-62.34 3.02,-1.47 6.57,-0.08 7.81,3.01l14.99 38.24c1.16,3.01 3.16,5.1 6.09,6.42 49.53,22.33 100.36,37.85 152.36,46.73 3.47,0.54 5.17,-0.93 5.17,-4.4 -0.07,-14.76 0.85,-29.2 2.78,-43.49 3.86,-30.13 -1.47,-60.42 0.23,-91.79 0.78,-13.75 0.54,-28.57 -0.69,-44.57 -2.86,-37.39 -1.86,-75.32 3.01,-113.72 0.31,-2.54 -0.7,-4.41 -3.09,-5.48 -8.26,-3.79 -16.07,-4.64 -23.41,-2.55 -10.66,3.01 -20.32,-7.03 -17,-17.62 4.87,-15.53 13.83,-29.89 26.74,-43.26 3.16,-3.25 0.84,-8.73 -3.64,-8.73 -13.67,-0.07 -26.03,2.78 -37.08,8.58 -21.01,10.89 -43.03,21.55 -66.13,31.82 -11.82,5.33 -23.63,6.49 -35.46,3.56 -8.19,-2.01 -11.97,-7.19 -11.28,-15.61 0.7,-9.88 4.56,-17.45 11.59,-22.78 25.49,-19.47 49.06,-37.86 59.88,-69.77 0.84,-2.39 0.46,-5.1 -1.01,-7.11 -5.17,-7.18 -11.59,-13.51 -19.23,-18.99 -2.25,-1.63 -3.56,-3.72 -4.03,-6.42 -1.85,-12.13 -2.31,-24.33 -1.38,-36.77 0.92,-12.59 -3.17,-24.88 -13.99,-32.06 -28.89,-19.24 -71.46,-23.72 -92.71,9.34 -14.91,23.33 -6.87,49.53 -21.24,74.78 -16.53,29.37 -27.88,61.81 -43.95,92.24 -6.34,11.98 -15.77,30.13 -12.9,43.97 1.23,5.71 0.53,11.12 -2.17,16.14 -10.89,20.63 -25.26,36.16 -43.11,46.59 -27.12,15.84 -25.57,63.96 -24.56,90.61 0.76,19.94 -5.03,45.66 -17.47,77.18 -43.72,110.71 -128.63,45.97 -201.32,25.57 -13.83,-3.86 -28.97,-4.71 -45.35,-2.62 -56.47,7.33 -108.69,19.92 -156.6,37.85 -2.62,1.01 -4.7,0.31 -6.17,-2z"/>
   </g>
   <g>
    <path class="fil0 str0" d="M4278.56 5339.08c-4.17,-96.11 1.08,-200.01 15.68,-311.79 3.79,-29.06 3.86,-57.02 0.23,-83.9 -10.89,-80.81 -97.57,-59.41 -150.95,-44.66 -79.73,22.09 -152.96,42.34 -233.38,54.62 -6.42,1 -6.42,1.31 0.07,1.08 35.69,-1.39 85.83,-7.41 119.13,7.57 3.09,1.4 2.85,5.8 -0.31,6.95 -4.41,1.63 -8.81,2.25 -13.21,1.94 -33.92,-2.56 -68.06,-4.25 -102.36,-5.26 -46.51,-1.38 -83.98,9.58 -87.76,63.27 -1.94,28.05 -4.88,54.93 -8.66,80.66 -3.17,22.02 -12.75,51.76 -28.58,89.08 -20.48,48.28 -11.83,100.58 -23.87,150.72 -7.19,30.05 -13.75,60.72 -19.7,92.16 -2.24,11.82 -1.55,22.64 2.08,32.45 11.83,32.29 20.32,62.8 16.53,98.03 -5.56,51.38 -12.28,100.82 -20.23,148.33 -3.95,23.41 -3.72,46.67 -4.1,70.15 -0.07,3.09 1.08,5.64 3.48,7.57 67.05,56.24 127.69,80.5 214.53,51.92 92.94,-30.6 166.72,-74.55 221.34,-131.8 23.24,-24.49 49.36,-63.27 78.26,-116.35 6.26,-11.5 9.58,-23.48 10.12,-36.07 3.01,-76.56 15.06,-149.1 11.66,-226.67z"/>
   </g>
   <g>
    <path class="fil0 str0" d="M3786.22 3770.12c4.16,3.33 11.2,3.02 21.09,-0.93"/>
   </g>
   <g>
    <path class="fil0 str0" d="M3909.67 3760.31c4.01,1.24 8.5,1.24 13.37,0.08"/>
   </g>
   <g>
    <path class="fil0 str0" d="M3940.96 3758.45c2.94,0.62 5.25,0.39 7.02,-0.62"/>
   </g>
   <g>
    <line class="fil0 str0" x1="3970.08" y1="3752.97" x2="3977.04" y2= "3752.59" />
   </g>
   <g>
    <path class="fil0 str0" d="M4373.35 3520.51c0.23,0.61 0.47,1.24 0.7,1.77 0,0.09 0.08,0.16 0.15,0.09 10.2,-3.64 16.22,-9.66 18.16,-18.16"/>
   </g>
   <g>
    <line class="fil0 str1" x1="4392.36" y1="3504.21" x2="4373.35" y2= "3520.51" />
   </g>
   <g>
    <path class="fil0 str1" d="M3918.09 3759.77c-3.09,-0.54 -5.87,-0.31 -8.42,0.54"/>
   </g>
   <g>
    <path class="fil0 str1" d="M3807.31 3769.19c-8.27,-0.93 -15.3,-0.62 -21.09,0.93"/>
   </g>
   <g>
    <path class="fil0 str1" d="M4637.56 4635.99c-2.01,-0.54 -3.63,-0.16 -4.86,1.16 0.38,1.93 2.16,2.01 5.4,0.38"/>
   </g>
   <g>
    <path class="fil0 str0" d="M4638.1 4637.53c-0.23,-0.54 -0.38,-1 -0.54,-1.54"/>
   </g>
   <path class="fil1" d="M4875.35 973.66c5.64,-1.39 9.66,-6.49 9.66,-12.36l0 -288.39c0,-7.5 -4.79,-14.14 -11.82,-16.46l-23.56 -7.95c-6.42,-2.17 -9.05,-9.81 -5.33,-15.45 5.64,-8.58 13.82,-12.67 24.56,-12.45 73.24,1.63 136.59,5.03 189.97,10.13 1.16,0.15 2.01,1.08 2.01,2.24l0 382.49c0,4.09 -2.01,5.94 -6.1,5.56 -63.81,-5.8 -125.54,-9.58 -185.19,-11.36 -11.19,-0.31 -19.15,-4.02 -24.02,-11.2 -5.02,-7.34 -1.08,-17.31 7.5,-19.39l22.32 -5.41z"/>
   <path class="fil1" d="M4608.98 710.84c0.08,-27.82 -11.36,-47.97 -42.73,-49.29 -1.15,-0.08 -1.78,-0.69 -1.78,-1.85l-0.14 -29.12c0,-1.63 0.85,-2.56 2.46,-2.79 113.11,-11.2 222.42,52.15 227.44,174.14 5.41,130.63 -106.77,210.75 -227.67,212.06 -1.54,0.07 -2.31,-0.7 -2.23,-2.24l0.07 -27.73c0,-1.4 0.7,-2.25 2.09,-2.48 28.42,-5.18 42.72,-21.79 42.64,-49.67 -0.38,-80.73 -0.47,-154.43 -0.15,-221.03z"/>
   <path class="fil1" d="M4345.7 686.04l-16.77 -1.62c-9.11,-0.93 -13.83,-11.36 -8.5,-18.78 8.73,-12.12 23.64,-13.9 38.63,-15.91 56.63,-7.65 114.11,-14.06 172.27,-19.24 2.25,-0.22 4.17,1.55 4.17,3.79l0 378.55c0,2.55 -1.3,3.93 -3.86,4.17 -66.43,5.17 -129.78,11.9 -190.04,20.08 -8.11,1.16 -15.07,-1.23 -20.78,-7.18 -5.72,-5.79 -3.87,-15.53 3.63,-18.85l22.87 -10.04c8.72,-3.79 14.36,-12.44 14.36,-21.94l0 -275.42c0,-9.11 -6.95,-16.76 -15.98,-17.61z"/>
   <path class="fil1" d="M5094.52 633.2l154.74 18.46c3.17,0.39 4.79,2.17 4.79,5.33l-0.23 100.82c0,3.48 -1.55,6.03 -4.56,7.65 -12.21,6.65 -29.97,4.48 -36.08,-9.58 -20.93,-48.28 -60.79,-77.1 -119.58,-86.3 -1.01,-0.15 -1.47,-0.76 -1.47,-1.77l-0.47 -31.99c-0.07,-2 0.93,-2.85 2.86,-2.62z"/>
   <path class="fil1" d="M5345.44 1026.27c7.04,-0.31 12.52,-6.1 12.52,-13.13 0.23,-92.63 0.39,-187.19 0.46,-283.84 0,-7.02 -1.54,-13.36 -4.64,-18.85 -1.3,-2.39 -3.23,-4.25 -5.79,-5.41l-25.41 -12.04c-7.26,-3.41 -9.04,-12.83 -3.63,-18.7 5.79,-6.26 13.21,-8.66 22.09,-7.03 65.44,11.43 127.24,24.33 185.41,38.63 2.24,0.61 3.87,2.62 3.87,5.02 -0.16,115.65 -0.16,226.04 -0.09,331.26 0,28.75 27.59,30.21 45.97,42.57 5.73,3.86 7.03,11.74 2.86,17.23 -4.48,5.95 -12.44,8.89 -20.01,6.95 -70.69,-17.92 -142.38,-33.83 -215.07,-47.82 -13.13,-2.55 -21.78,-6.33 -26.5,-18.61 -2.79,-7.2 2.32,-15 9.96,-15.38l18 -0.85z"/>
   <path class="fil1" d="M4089.13 767.23c-0.07,-24.09 -17,-36.07 -40.09,-31.51 -1.32,0.23 -1.94,-0.31 -1.94,-1.63l-0.38 -28.58c-0.08,-1.77 0.78,-2.93 2.55,-3.32 94.79,-20.71 205.65,13.14 219.41,122.06 18.45,145.7 -91.55,238.95 -220.42,274.79 -1.16,0.31 -1.69,-0.07 -1.62,-1.23l0.39 -29.51c0,-1.16 0.54,-2.01 1.7,-2.4 26.88,-9.58 40.4,-29.04 40.48,-58.41 0.15,-79.72 0.15,-159.83 -0.08,-240.26z"/>
   <path class="fil1" d="M3984.84 1035.08c0,19.7 3.25,41.33 29.12,40.02 1.32,-0.08 1.94,0.54 2.01,1.85l0.38 27.19c0,1.31 -0.92,2.47 -2.23,2.78 -95.56,21.79 -200.01,-5.01 -206.58,-121.21 -7.11,-127 82.74,-237.64 203.26,-274.02 3.47,-1 5.17,0.23 5.17,3.78l0.08 23.57c0,3.08 -1.78,5.87 -4.48,7.18 -17.69,8.58 -26.5,23.41 -26.5,44.5 0.15,76.56 0.08,157.98 -0.23,244.36z"/>
   <path class="fil1" d="M5663.58 945.07c43.19,19.32 106.77,52.39 104.45,108.47 -0.69,18.24 -0.62,35.77 0.31,52.61 0.38,5.95 5.95,10.13 11.66,8.81l16.15 -3.71c2.24,-0.47 4.33,-0.23 6.33,0.69 8.12,3.79 13.29,9.89 15.61,18.47 0.69,2.63 0.38,5.41 -0.92,7.88 -17.78,34.46 -60.97,35.22 -95.03,26.35 -57.17,-15 -122.91,-50.61 -120.91,-118.82 1.24,-42.81 11.13,-90.77 -40.78,-109.55 -1.16,-0.39 -1.7,-1.23 -1.7,-2.48l0.77 -29.73c0.08,-1.32 0.69,-1.86 2,-1.55 26.27,6.95 39.56,-2.93 39.95,-29.59 0.3,-22.17 0.3,-45.04 0,-68.68 -0.31,-27.2 -14.45,-45.43 -42.49,-54.7 -1.01,-0.38 -1.47,-1.07 -1.55,-2.16l-0.93 -31.6c0,-1.31 0.62,-1.77 1.94,-1.54 70.38,15.29 142.76,39.4 187.02,97.27 22.1,28.81 35.93,84.04 4.64,112.25 -23.4,21.01 -55.85,18.92 -85.67,17.68 -6.49,-0.23 -6.8,0.93 -0.85,3.63z"/>
   <path class="fil1" d="M5097.23 806.17c22.33,-3.4 40.09,-14.36 48.12,-36.62 1.01,-2.78 3.02,-5.1 5.64,-6.57 20.25,-11.19 38.79,-2.31 39.1,22.26 0.46,36.39 0.38,72.07 -0.16,107.23 -0.08,5.33 -0.84,10.58 -2.16,15.6 -0.55,2.08 -1.86,3.63 -3.78,4.56 -14.91,7.1 -31.84,2.93 -37.71,-13.52 -9.19,-25.96 -22.48,-46.04 -50.29,-54.39 -2.7,-0.85 -4.1,-2.7 -4.17,-5.56l-0.07 -26.58c0,-3.7 1.85,-5.86 5.48,-6.41z"/>
   <path class="fil1" d="M3729.67 1150.65c7.8,-1.16 15.68,-1.08 23.63,0.24 6.26,1 9.67,7.87 6.73,13.51 -4.41,8.66 -10.82,14.53 -19.24,17.54 -72.85,26.49 -143.54,54.62 -212.06,84.28 -7.65,3.32 -14.22,1.93 -19.63,-4.33 -4.09,-4.7 -3.24,-11.81 1.71,-15.6 18.3,-13.75 44.96,-22.24 44.96,-49.6 0.08,-105.61 0.39,-211.06 0.77,-316.51 0,-2.55 1.16,-4.33 3.48,-5.4 61.26,-27.2 122.59,-51.46 184.09,-72.78 7.34,-2.55 15.22,2.24 16.3,9.96 2.94,21.48 -39.78,22.18 -39.86,51.38 -0.23,96.5 -0.15,189.66 0.16,279.66 0.07,4.79 4.24,8.34 8.96,7.65z"/>
   <path class="fil1" d="M5911.41 881.11c-10.81,-19.08 -26.27,-26.5 -41.71,-39.78 -8.65,-7.35 -9.74,-15.22 -3.17,-23.65 1.62,-2.09 3.79,-3.01 6.4,-2.78 7.04,0.54 13.76,2.09 20.17,4.56 61.26,23.56 118.04,47.52 170.43,71.7 3.32,1.54 5.79,3.93 7.56,7.1 61.57,115.8 121.45,232.31 179.55,349.5 4.17,8.42 6.17,17.54 6.1,27.42 -0.47,36.7 -0.54,73.4 -0.24,110.17 0,3.63 -1.54,4.55 -4.71,2.86l-89.38 -48.05c-2.78,-1.47 -4.86,-3.64 -6.33,-6.49 -80.35,-155.83 -161.93,-306.7 -244.67,-452.56z"/>
   <path class="fil1" d="M5101.4 1022.87l-0.16 -29.28c0,-1.23 0.62,-1.85 1.86,-1.77 50.21,2.7 94.33,-15.69 118.28,-60.65 9.57,-18 28.66,-17.54 41.17,-3.4 1.62,1.85 2.55,4.25 2.55,6.72l0.7 108.63c0,2.39 -1.16,3.47 -3.56,3.16l-158.76 -20.94c-1.39,-0.23 -2.08,-1 -2.08,-2.47z"/>
   <path class="fil1" d="M5872.17 1180.55c23.09,-1.55 39.55,-10.9 39.86,-38.17 0.7,-67.05 0.7,-136.27 0,-207.65 0,-2.48 3.24,-3.41 4.56,-1.25 10.04,16.93 20.63,34.39 31.75,52.31 4.55,7.41 6.8,15.45 6.8,24.1 0.15,45.43 0,92.17 -0.47,140.14 -0.07,11.44 1.55,21.94 4.95,31.44 5.41,15.3 13.13,26.58 23.26,33.84 13.04,9.43 20.39,15.76 22.16,19.01 13.68,25.72 7.11,32.99 -19.77,21.78 -33.69,-13.98 -68.37,-28.58 -104.14,-43.8 -8.11,-3.47 -13.99,-8.73 -17.77,-15.92 -3.63,-6.95 1.01,-15.29 8.81,-15.83z"/>
   <path class="fil1" d="M3493.27 1050.68c1.16,1.93 4.09,1.62 4.79,-0.54l25.95 -80.89c3.63,-11.35 5.41,-11.12 5.34,0.86 -0.31,35.3 4.48,71.85 -7.42,106.22 -26.19,75.63 -50.52,148.95 -72.93,220.02 -3.08,9.74 -10.19,13.29 -18.85,16.93 -3.09,1.3 -5.49,0.45 -7.11,-2.48l-136.43 -245.98c-3.01,-5.41 -9.43,-7.95 -15.29,-6.18l-22.49 6.72c-6.1,1.85 -11.97,-3.55 -10.58,-9.81 4.25,-19.31 25.18,-31.21 42.18,-40.64 48.75,-27.03 96.18,-52.37 142.31,-76.09 1.92,-1 4.32,-0.31 5.48,1.54l65.05 110.32z"/>
   <path class="fil1" d="M6303.79 1045.89c-21.02,-2.62 -47.36,-6.18 -47.36,24.96 0,47.2 0,92.7 0,136.51 0,7.18 -1.7,7.56 -5.02,1.23 -8.73,-16.84 -18.54,-35.39 -29.43,-55.7 -5.02,-9.5 -7.34,-19.62 -6.88,-30.36 1.15,-25.42 1.15,-50.37 0.15,-74.71 -1.31,-31.59 -21.55,-53.69 -41.94,-75.39 -3.86,-4.1 -5.42,-8.89 -4.72,-14.3 1,-7.18 8.73,-11.35 15.3,-8.11 35.3,17.54 71.23,37.16 107.77,58.71 10.97,6.49 17.77,15.92 20.32,28.35 1,4.95 -3.18,9.43 -8.19,8.81z"/>
   <path class="fil1" d="M4836.03 1902.65c0.92,-12.9 2.94,-25.65 5.95,-38.17 7.03,-28.73 6.72,-53.46 12.97,-80.19 5.88,-24.95 11.9,-49.98 18.01,-75.01 6.95,-28.2 9.11,-56.09 16.53,-84.75 14.6,-56.78 27.27,-114.11 37.85,-171.97 7.81,-42.56 8.04,-89.23 32.99,-125.93 4.25,-6.33 12.82,-8.11 19.31,-4.08 7.57,4.63 13.83,10.65 18.78,17.99 18.46,27.43 37.39,54.86 56.63,82.12 14.52,20.48 22.01,49.06 11.97,73.32 -12.59,30.44 -10.66,63.97 -20.17,96.64 -9.65,32.92 -17.14,67.06 -22.63,102.36 -6.88,44.66 -18,88.62 -25.96,133.97 -3.09,17.38 -6.72,34.91 -10.89,52.76 -9.89,42.11 -17.3,84.67 -22.33,127.62 -2.23,19.39 -5.55,38.71 -10.12,57.79 -4.48,19.16 -8.42,38.39 -11.81,57.71 0,0.07 0,0.07 0,0.07l1.92 0.4c1.47,0.22 2.4,-0.4 2.63,-1.86 3.79,-20.63 9.35,-40.95 16.69,-60.87 10.43,-28.66 6.49,-58.79 18.31,-85.22 4.48,-9.96 7.65,-20.16 9.5,-30.75 6.8,-38.78 22.33,-76.79 31.22,-116.42 11.73,-52.07 26.34,-103.67 43.88,-154.82 9.03,-26.34 39.4,-18.31 47.66,2.71 10.28,26.03 21.32,53.23 32.99,81.5 4.08,9.89 5.4,20.63 3.94,32.14 -2.32,18.62 -6.42,35.38 -12.36,50.21 -21.48,54 -38.56,105.53 -45.74,161.46 -3.02,23.8 -16.15,42.19 -20.55,65.75 -4.94,26.27 -19.31,48.51 -23.25,76.25 -0.78,5.33 0.08,5.64 2.47,0.78 5.33,-10.59 8.04,-21.71 14.68,-31.91 18.23,-28.04 35.3,-57.1 51.22,-87.3 6.41,-12.13 17.46,-20.78 29.28,-27.04 2.31,-1.23 5.25,-0.61 6.95,1.39 12.05,14.91 16.61,30.21 13.6,46.05 -5.49,29.04 5.79,55.69 -5.57,82.89 -12.89,31.05 -31.67,69.91 -56.39,116.58 -14.14,26.65 -17.15,56.39 -9.2,89.23 0.78,3.08 2.01,3.24 3.72,0.53 8.42,-13.44 19.77,-25.42 34.21,-35.85 1.86,-1.3 4.34,-1.3 6.26,0 12.75,9.2 22.26,21.95 21.17,38.56 -1.23,18.77 -1.54,36.62 -0.93,53.46 0.7,18.15 -4.09,37.08 -7.34,55.08 -1,5.72 -4.17,10.9 -8.88,14.37 -24.64,17.92 -50.6,33.53 -72.77,54.16 -19.7,18.38 -41.25,35.3 -64.74,50.83 -2.09,1.39 -4.41,1.78 -6.88,1.16 -8.34,-2.25 -13.28,-9.66 -21.47,-12.82 -29.44,-11.36 -58.02,-22.79 -85.83,-34.31 -0.7,-0.31 -1.08,-0.77 -1.24,-1.47 -0.15,-0.61 0,-1.3 0.46,-2.01 0.55,-0.92 0.31,-1.54 -0.69,-1.92 -13.67,-5.34 -23.02,-13.83 -27.97,-25.5 -12.51,-29.59 -10.97,-64.82 -17.69,-97.42 -3.01,-15.06 -5.95,-29.97 -8.81,-44.73 -0.07,-0.54 -0.15,-0.54 -0.15,0 0.08,25.42 -1.7,53.69 -5.18,84.75 -1.85,16.61 9.81,28.59 14.76,43.73 6.8,21.08 27.65,76.94 50.68,88.53 28.66,14.45 56.39,30.29 83.12,47.67 5.57,3.63 10.13,8.58 13.29,14.37 8.88,16.61 17.93,32.67 27.11,48.2 3.18,5.26 5.5,11.13 6.96,17.54 2.24,9.43 -6.49,17.69 -15.76,15.07 -28.2,-8.04 -53.07,-21.41 -81.43,-29.28 -22.71,-6.42 -47.36,-15.76 -73.93,-28.05 -20.47,-9.42 -35.92,-36.69 -49.75,-54.16 -11.66,-14.75 -21.17,-32.9 -28.66,-54.62 -2.55,-7.41 -5.18,-14.6 -8.03,-21.55 -27.9,-68.29 -56.64,-141.6 -86.22,-219.94 -1.4,-3.63 -2.78,-3.63 -4.1,0.08 -8.57,24.1 -22.55,44.81 -31.51,69.75 -11.83,33.07 -24.96,65.52 -39.33,97.43 -7.18,16.06 -14.22,32.44 -20.93,49.2 -11.59,28.9 -26.27,60.04 -44.12,93.49 -7.64,14.37 -16.92,23.56 -27.88,27.5 -32.53,11.81 -67.21,24.8 -103.91,39.01 -20.24,7.81 -39.87,12.67 -58.95,14.6 -2.94,0.31 -5.33,-2.47 -4.56,-5.33 10.43,-39.55 36.08,-78.18 74.47,-95.41 44.12,-19.86 99.35,-64.27 106.15,-116.89 3.33,-26.34 -11.2,-62.34 -18.46,-90.3 -0.08,-0.47 -0.23,-0.47 -0.31,0.07 -4.41,30.82 -6.8,61.96 -7.11,93.33 -0.15,20.16 -5.25,34.14 -23.4,42.95 -41.49,20.01 -79.89,34.15 -115.03,42.57 -8.89,2.08 -17.62,-3.71 -22.56,-10.51 -32.45,-44.81 -56.71,-91.39 -89,-133.04 -4.64,-5.94 -7.11,-13.2 -7.11,-20.7 0.08,-24.25 -1.39,-48.83 -4.41,-73.77 -1,-8.27 -0.22,-15.92 2.25,-23.11 5.02,-14.44 11.97,-15.44 20.93,-3.16 8.5,11.67 17.54,23.49 27.2,35.46 14.75,18.31 19.01,16.15 12.75,-6.56 -4.88,-17.23 -12.75,-36.32 -22.1,-51.85 -14.98,-24.79 -28.51,-50.29 -40.56,-76.48 -11.82,-25.5 -32.83,-36.69 -28.58,-69.99 3.78,-29.2 7.88,-58.87 12.36,-89 2.4,-16.45 7.34,-32.29 14.83,-47.35 1.23,-2.55 2.7,-2.71 4.48,-0.54 9.43,11.81 17.07,24.25 22.95,37.31 21.94,48.82 43.1,95.8 63.5,140.84 0.46,1.15 1.31,1.46 2.47,1l1.85 -0.85c0.31,-0.08 0.4,-0.31 0.31,-0.62 -12.43,-34.84 -25.25,-72.47 -38.31,-113.03 -1.31,-4.17 -2.56,-8.26 -3.56,-12.28 -11.05,-43.1 -26.19,-88.76 -45.35,-137.05 -8.8,-22.24 -19.54,-66.52 -7.72,-91.39 16.99,-35.77 31.36,-68.91 43.11,-99.58 4.48,-11.58 12.9,-21.4 25.26,-29.51 2.24,-1.46 4.48,-1.39 6.56,0.31 10.43,8.5 16.85,18.77 19.16,30.75 4.17,22.01 9.2,44.65 15,67.98 3.55,14.45 -0.31,29.51 5.71,42.88 10.35,23.09 9.2,44.65 14.91,68.68 4.17,17.38 7.64,36.62 10.35,57.7 0.08,0.31 0.23,0.47 0.54,0.39l2.24 -0.23c2.55,-0.23 3.63,-1.63 3.33,-4.1 -6.26,-52.22 -13.52,-106.68 -21.79,-163.46 -2.16,-15.22 1.16,-30.52 -2.47,-45.35 -5.02,-20.79 -7.49,-41.03 -7.34,-60.73 0.07,-15.45 -1.55,-32.29 -4.95,-50.45 -6.25,-33.37 -4.79,-69.75 -11.74,-104.83 -3.86,-19.7 -11.43,-62.04 3.63,-78.64 31.6,-34.84 63.12,-69.53 94.41,-103.91 6.88,-7.5 13.67,-7.41 20.39,0.08 13.29,14.83 8.04,56.85 9.66,76.79 6.02,73.39 11.89,147.01 17.69,220.87 3.78,48.59 1.15,112.02 12.98,152.42 12.97,44.27 20.32,87.92 22.02,131.11 0,0.07 0.07,0.15 0.15,0.15l2.47 0c1.39,0 2.01,-0.7 1.86,-2.02 -2.55,-25.72 1.93,-49.59 -0.85,-75.32 -5.33,-49.52 -8.51,-95.32 -9.58,-137.28 -0.23,-6.95 -1.16,-14.13 -2.86,-21.55 -3.56,-15.22 2.32,-28.43 0.38,-42.26 -6.72,-49.21 -10.96,-97.88 -12.74,-145.93 -0.54,-14.45 -2.32,-28.66 -5.18,-42.57 -4.25,-20.39 -0.84,-40.63 -3.78,-61.57 -4.79,-34.23 -7.89,-71 -9.27,-110.32 -0.16,-6.03 2.78,-11.74 7.87,-15.06 34.23,-22.18 67.83,-44.43 100.9,-66.68 4.64,-3.09 9.65,-5.01 15.07,-5.79 8.03,-1.09 12.51,2.39 13.44,10.5 9.35,80.35 19.16,158.3 29.43,233.86 1.32,9.96 1.7,19.47 1.16,28.58 -1.31,22.63 6.02,43.65 7.42,66.21 0.77,12.44 1.77,24.95 2.93,37.38 0.23,2.18 0.46,2.18 0.7,0 2.39,-19.84 2.55,-39.47 0.46,-58.86 -2.01,-18.92 -2.86,-37.46 -2.62,-55.62 0.54,-38.01 -5.03,-75.25 -3.79,-113.88 1,-34.38 0.85,-68.99 -0.55,-103.91 -0.3,-6.71 -0.53,-13.28 -0.61,-19.85 -0.69,-47.81 -2.78,-96.34 -6.41,-145.62 -0.47,-6.88 5.1,-12.75 11.97,-12.52l83.74 2.47c5.88,0.16 10.59,4.95 10.67,10.82 0.38,31.21 0,62.65 -2.86,93.4 -3.86,41.26 1.46,79.81 -0.39,120.13 -1.16,27.43 -1.54,56.32 -1.16,86.53 0,1 0.47,1.47 1.47,1.54l0.08 0c0.84,0 1.24,-0.38 1.31,-1.23 0.93,-9.36 1.71,-18.32 2.24,-27.05 1.55,-23.02 9.66,-44.57 10.9,-68.13 1.54,-28.97 9.5,-56.16 14.36,-84.37 0.86,-5.01 3.18,-9.34 6.81,-13.05 25.79,-26.26 92.08,61.65 105.52,77.79 6.8,8.2 9.74,17.62 8.74,28.36 -11.13,119.2 -27.12,257.87 -48.06,416.02 -7.88,59.4 -13.29,124.15 -16.23,194.29 -0.23,5.56 -0.14,5.56 0.24,0.08zm-91.47 -467.42c0.85,0.02 1.85,-5.53 2.31,-12.55 0.4,-6.97 0.09,-12.68 -0.76,-12.74 -0.86,-0.03 -1.86,5.54 -2.32,12.56 -0.39,6.96 -0.08,12.68 0.77,12.73zm-222.52 549.07c0.72,-0.07 0.57,-7.72 -0.37,-17.12 -0.92,-9.37 -2.23,-16.95 -2.97,-16.86 -0.72,0.07 -0.58,7.71 0.36,17.11 0.92,9.38 2.24,16.95 2.98,16.87zm14.12 64.83c0.97,-0.16 -0.5,-13.68 -3.38,-30.15 -2.91,-16.45 -6,-29.66 -7.04,-29.51 -0.97,0.16 0.49,13.69 3.39,30.15 2.9,16.45 5.99,29.65 7.03,29.51zm5.07 16.67c-1.39,2.09 -0.78,4.33 1.77,6.73 0.85,-2.55 0.23,-4.79 -1.77,-6.73z"/>
   <path class="fil1" d="M3324.47 1288.32c-0.23,33.45 31.82,24.96 52.22,26.65 3.94,0.31 6.72,4.02 5.95,7.96 -1.77,8.96 -7.11,15.91 -15.92,20.78 -38.08,21.25 -75.79,42.02 -112.94,62.27 -2.78,1.46 -5.72,2.01 -8.73,1.62 -7.11,-1.01 -10.35,-9.5 -5.64,-14.99 22.33,-26.27 44.81,-50.14 44.65,-86.84 -0.22,-53.53 -0.15,-107.3 0.16,-161.3 0,-6.72 1.78,-7.26 5.33,-1.47l32.53 52.38c1.61,2.62 2.39,5.49 2.39,8.5 0.23,27.12 0.23,55.31 0,84.44z"/>
   <path class="fil1" d="M5648.98 4998.23l-76.79 156.98c-1.16,2.48 -1.24,5.34 -0.16,7.8 6.11,14.38 6.49,27.82 1.24,40.34 -1.24,3.09 -1.47,6.57 -0.54,9.73 5.64,19.16 5.25,39.32 -1.01,60.41 -0.84,2.94 -0.93,5.95 -0.15,8.97 5.48,21.32 0.31,40.94 2.24,62.34 2.32,25.19 -3.02,51.22 -2.4,76.18 0.85,32.2 -5.25,61.64 -0.93,93.16 2.32,17.23 -2.77,33.84 -0.85,51.53 2.32,22.02 -2.47,41.72 -2,63.81 0.23,9.66 -0.08,19.7 -1.08,29.97 -2.86,30.06 -4.18,62.43 -3.94,96.96 0.46,53.08 0.54,85.44 0.23,97.11 -1.63,59.87 -2.55,117.35 -2.79,172.51 -0.14,29.2 -28.19,49.28 -45.34,70.85 -46.28,58.39 -88.3,115.26 -125.92,170.64 -23.96,35.23 -49.14,67.99 -75.48,98.28 -37.17,42.56 -75.64,82.89 -110.71,126.93 -47.05,59.1 -98.73,115.72 -155.2,169.8 -5.72,5.49 -13.91,15.45 -24.49,29.74 -21.41,29.13 -46.97,53.85 -69.06,83.21 -8.27,11.04 -18.63,20.31 -30.91,27.81 -2.4,1.47 -4.87,1.77 -7.57,0.92 -33.92,-10.58 -18.7,-51.75 -19.24,-76.48 -0.84,-36 10.12,-71 8.65,-107.07 -1.47,-35.31 -1.07,-70.07 1.16,-104.29 0.85,-13.37 8.81,-26.51 7.19,-39.1 -4.18,-31.05 -4.02,-60.26 0.39,-87.61 2.7,-16.37 3.47,-32.67 2.47,-48.82 -1.24,-19.24 -0.38,-39.63 2.63,-61.18 2.62,-19.24 2.31,-39.56 0.92,-59.26 -1.32,-19.39 -0.07,-37.16 3.71,-53.3 4.55,-19.09 6.49,-34.92 5.95,-47.59 -1,-21.56 -3.94,-42.19 -2.86,-63.58 2.09,-39.48 8.97,-78.96 8.97,-118.36 0,-44.73 2.23,-86.83 6.64,-126.16 1.23,-10.96 1.38,-22.01 0.45,-33.14 -1.85,-22.32 3.41,-43.8 0.93,-65.98 -2,-18.54 0.39,-36.61 -1,-55.54 -0.54,-8.65 -0.23,-17.61 1,-26.8 4.64,-34.23 5.42,-69 2.4,-104.14 -1.62,-18.16 -1.15,-38.17 1.39,-59.88 2.24,-20.01 2.01,-42.25 -0.77,-66.74 -1.47,-13.13 1.93,-24.96 1.24,-37.4 -2.87,-55.38 -7.5,-108.69 -14.06,-159.91 -3.64,-28.2 -3.1,-56.01 -7.81,-84.06 -4.32,-25.49 -1,-54.61 -3.47,-75.93 -7.73,-65.9 -12.99,-131.95 -15.69,-198.16 -0.46,-11.12 -0.69,-22.33 -0.62,-33.53 0.08,-22.02 36.32,-47.43 53.46,-54.85 8.5,-3.63 17.08,-3.41 25.65,0.69 37.55,18 75.17,34.54 112.79,49.52 11.98,4.72 22.33,12.9 34.38,17.15 24.88,8.74 47.29,19.01 67.21,30.67 14.6,8.58 30.44,15.53 46.51,20.32 41.79,12.28 81.27,28.66 118.51,48.98 7.57,4.09 15.69,6.41 24.25,6.96 2.56,0.15 4.95,-0.47 7.04,-1.94 38.78,-25.72 26.65,-52.3 37.15,-89.61 3.25,-11.52 4.57,-24.49 3.95,-38.94 -1.24,-27.58 4.32,-55.93 16.6,-85.05 16.23,-38.48 31.06,-77.88 53.39,-112.41 10.19,-15.77 19.55,-32.14 28.04,-49.13 3.09,-6.18 1.31,-8.27 -5.25,-6.18 -61.41,19.39 -122.91,40.47 -184.49,63.42 -22.78,8.5 -50.05,12.44 -76.32,22.94 -19.86,7.96 -40.25,15.15 -61.26,21.48 -22.8,6.95 -46.67,7.11 -70.61,7.57 -68.14,1.32 -132.11,4.4 -191.98,9.27 -12.59,1.01 -31.6,8.27 -57.17,21.79 -32.06,16.99 -51.69,48.51 -73.08,76.09 -5.72,7.34 -9.27,16.23 -10.12,25.5 -1.47,16.53 -1.63,33.83 -0.39,51.99 1.16,16.31 -4.79,31.98 -2.62,47.28 3.39,24.72 4.63,49.21 3.63,73.39 -0.62,14.68 -0.24,28.28 1.07,40.87 1.7,15.69 1.94,29.89 0.78,42.57 -2.16,23.48 4.4,45.12 0.85,67.59 -4.1,26.12 5.79,50.99 0.23,77.1 -3.86,18.23 2.86,35.7 2.62,54.24 -0.53,36.77 5.03,77.18 16.69,121.21 8.04,30.28 3.17,62.73 -17.31,87.61 -11.5,14.06 -20.93,28.35 -27.03,45.57 -12.75,36.08 -31.36,70.77 -55.85,104.07 -8.27,11.36 -10.05,22.55 -13.91,35.61 -3.32,11.12 -14.6,17.85 -25.89,15.45 -9.11,-1.85 -17.61,-4.64 -26.95,-1.08 -28.82,10.9 -57.09,2.16 -84.83,-5.48 -12.44,-3.4 -22.79,-12.13 -30.98,-26.27 -29.43,-51.06 -57.56,-95.33 -84.21,-132.64 -13.51,-18.86 -13.59,-42.96 -22.71,-64.52 -3.63,-8.57 -4.55,-18.14 -2.7,-28.66 4.71,-26.88 12.51,-51.91 14.83,-78.48 2.55,-30.22 6.72,-60.96 12.52,-92.4 16.45,-89.85 25.8,-180.86 28.04,-273.02 0.62,-24.41 5.63,-48.13 5.41,-72.31 -0.23,-27.27 0.77,-54.93 3.09,-82.89 1,-12.29 -2.71,-31.06 -11.05,-56.25 -3.63,-10.88 -9.96,-20.15 -19.08,-27.73 -14.3,-11.82 -27.43,-20.16 -39.4,-24.95 -37.86,-15.07 -79.65,-28.75 -121.99,-27.59 -19.39,0.55 -39.08,-0.61 -59.18,-3.39 -80.18,-11.12 -161.07,-26.43 -242.65,-45.97 -35.23,-8.42 -64.35,-22.87 -98.04,-33.37 -33.37,-10.36 -63.27,-27.12 -98.19,-31.75 -20.16,-2.7 -41.79,-10.12 -64.97,-22.33 -19.23,-10.12 -22.17,-6.57 -8.96,10.66 17.08,22.17 31.52,46.19 50.22,67.21 30.05,33.91 56.55,69.61 61.1,117.9 4.33,44.95 7.11,93.24 8.35,144.92 1.31,54 69.83,45.51 103.14,34.84 46.58,-14.98 93.16,-30.67 139.59,-47.05 63.66,-22.4 130.1,-37.39 190.43,-60.48 13.06,-5.02 24.8,-6.03 35.31,-3.17 24.64,6.72 50.45,29.2 41.95,57.79 -10.12,33.83 -22.95,61.18 -17.23,97.57 1.01,6.1 0.85,12.12 -0.31,18.07 -3.78,19.16 -2.4,38.86 -3.71,58.64 -3.17,47.36 -6.49,95.03 -9.88,143.15 -1.85,26.27 -8.96,50.53 -3.41,76.79 0.54,2.71 0.4,5.33 -0.62,7.89 -6.71,16.99 -4.17,33.21 -4.93,51.21 -2.25,53.55 -5.03,105.77 -8.51,156.68 -0.54,7.8 -1.23,15.76 -2.08,23.71 -6.79,65.44 -9.35,133.19 -7.73,203.26 1.24,51.45 1.47,101.28 0.78,149.41 -0.85,54.15 -0.24,103.98 1.85,149.33 1.23,27.66 -4.63,54.08 -0.77,80.42 5.02,34.3 -6.65,67.68 1.24,102.29 4.01,17.38 -3.25,32.52 -0.55,50.14 3.25,21.24 7.04,42.41 7.26,63.96 0.4,29.82 0.55,60.57 0.47,92.24 0,10.13 0.77,19.94 2.4,29.52 2.23,13.67 -1.86,26.19 -1.16,39.78 0.77,15.53 0.77,30.91 0,46.13 -1.24,24.95 11.82,49.98 7.34,73.54 -4.1,21.87 -4.57,41.79 -1.25,59.8 2.87,15.44 3.95,30.05 3.25,43.72 -0.38,7.04 -0.38,13.99 0,20.86 1.47,24.96 3.63,50.37 6.34,76.25 1.7,15.69 -2.24,48.52 -16.23,58.17 -8.26,5.8 -19.54,4.41 -26.19,-3.16 -39.93,-45.58 -80.88,-91.24 -122.67,-137.05 -20.17,-22.09 -45.43,-62.74 -73.24,-89.15 -12.9,-12.29 -26.2,-22.48 -37.24,-36.77 -35.85,-46.59 -78.18,-87.46 -115.03,-133.12 -39.33,-48.67 -79.8,-96.18 -121.6,-142.54 -18,-20 -35.69,-40.16 -53.07,-60.64 -17.85,-21.08 -35.23,-41.25 -52.15,-60.48 -7.34,-8.43 -11.98,-17.23 -13.9,-26.58 -5.34,-26.19 -4.95,-52.62 1.16,-79.27 4.32,-19.23 -4.26,-36.84 -4.26,-56.39 0,-25.49 -0.53,-51.3 -1.62,-77.48 -1.23,-30.44 3.4,-59.41 0.69,-90.08 -2.47,-27.9 3.41,-54.55 -2.31,-82.9 -3.33,-16.76 5.49,-33.29 1.46,-47.98 -5.55,-20.47 -6.17,-42.02 -1.92,-64.73 3.48,-18.7 -2.78,-35.39 -1.16,-54.4 1.54,-17.45 -6.03,-34.29 -3.25,-51.06 2.63,-16.22 3.01,-31.82 1.23,-46.89 -1.07,-8.88 -0.84,-17.93 0.71,-26.96 2.08,-11.9 -1.71,-22.33 -2.32,-34.14 -1.94,-39.33 -2.56,-75.41 -1.94,-108.17 0.39,-22.24 -0.77,-44.65 -3.32,-67.21 -3.63,-31.29 -16.22,-86.44 -37.85,-165.4 -6.41,-23.4 -11.04,-51.76 -13.91,-85.21 -0.07,-0.85 -0.54,-1.24 -1.31,-1.16l-2.01 0c-0.47,0 -0.69,0.23 -0.69,0.7 -3.1,31.98 4.86,60.4 -0.08,92 -5.65,35.93 -6.8,71.24 -3.4,106.08 1.85,19.08 -4.86,36.7 -4.17,56.08 1,29.51 -6.49,57.95 -5.57,87.38 1.63,50.91 -6.64,99.58 -6.41,150.18 0.08,16.23 3.87,32.99 0.86,49.06 -4.95,25.88 -4.72,53.77 -6.11,80.49 -0.69,13.99 -0.77,27.81 -0.31,41.49 1.08,29.05 -2.24,58.33 -0.69,87.3 1,17.84 -1.24,34.15 -6.8,49.06 -3.63,9.96 -6.57,20.16 -8.66,30.74 -0.54,2.78 -1.61,2.94 -3.08,0.55 -5.49,-8.81 -17.47,-11.59 -25.81,-16.85 -12.9,-8.11 -18.47,-34.76 -25.96,-46.89 -33.76,-54.15 -65.27,-106.76 -94.55,-157.91 -20.24,-35.38 -45.2,-67.05 -59.72,-106.61 -5.87,-15.91 -27.97,-32.91 -27.2,-48.44 0.93,-19.93 5.95,-38.85 2.79,-59.02 -3.94,-25.65 10.27,-47.28 6.95,-73.62 -2.94,-22.95 -3.63,-39.02 -2.02,-48.36 5.34,-31.37 8.12,-59.49 8.43,-84.29 0.7,-58.18 3.16,-110.93 7.34,-158.37 2.16,-24.57 -2.78,-46.67 2.47,-71.16 4.48,-20.77 -2.31,-40.94 1.7,-62.11 5.71,-30.28 -2.16,-60.41 3.01,-90.38 5.72,-33.38 7.04,-66.99 4.02,-100.89 -2.78,-30.6 4.48,-60.81 7.88,-91.4 2.16,-20.16 -3.48,-38.7 3.25,-58.17 3.86,-11.36 11.43,-15.07 22.78,-11.13 55.63,19.08 107.31,45.89 155.06,80.27 0.22,0.23 0.46,0.16 0.69,-0.08l1.23 -1.47c0.62,-0.77 0.55,-1.46 -0.14,-2.16 -39.71,-38.16 -80.67,-75.71 -122.92,-112.56 -8.11,-7.03 -17.54,-8.42 -28.28,-4.09 -6.95,2.78 -14.29,-3.09 -12.97,-10.51 3.63,-20.78 10.19,-39.09 10.27,-60.64 0.23,-32.61 -0.62,-62.96 -2.54,-91.08 -1.32,-20.64 -2.09,-41.88 -2.18,-63.82 -0.07,-20.71 -1.61,-42.33 -4.55,-64.81 -5.57,-42.41 -31.83,-75.33 -27.43,-119.98 4.56,-46.89 -10.5,-91.01 -6.4,-137.59 1.38,-15.84 0.38,-31.91 -3.1,-48.21 -2.7,-12.74 0.16,-24.33 -1.54,-36.92 -2.71,-20.41 -3.71,-41.26 -2.86,-62.51 1,-25.96 -4.71,-50.6 -0.54,-76.55 7.33,-44.81 22.79,-87.69 46.51,-128.71 6.02,-10.43 8.26,-23.95 22.63,-25.81 8.96,-1.16 17.84,-1.38 26.66,-0.76 5.55,0.38 10.5,-3.32 11.74,-8.74 10.35,-46.5 33.99,-85.28 51.68,-128 23.8,-57.18 48.83,-109.79 75.17,-157.76 21.24,-38.79 47.89,-81.35 80.11,-127.71 28.04,-40.4 58.71,-78.17 92.17,-113.4 49.21,-52 85.98,-87.61 110.16,-107 58.79,-47.13 121.52,-85.6 188.19,-115.42 67.84,-30.36 147.71,-65.59 227.83,-86.75 66.67,-17.62 135.96,-36.55 207.73,-56.87 50.61,-14.29 52.62,-66.05 72.39,-105.52 23.18,-46.44 41.18,-96.73 63.66,-144.47 8.81,-18.85 16.68,-37.47 23.56,-55.85 2.25,-5.88 9.34,-8.2 14.6,-4.64 6.95,4.71 12.05,11.04 15.3,19.08 21.24,52.61 43.33,107.23 66.21,164.02 7.72,19.15 15.6,37.38 23.63,54.76 8.42,18.16 16.15,36.55 23.18,55.17 1,2.47 2.63,4.32 5.03,5.56 20.62,10.58 35.14,16.84 43.57,18.77 43.57,9.73 86.91,18.55 129.47,31.05 25.88,7.65 51.53,9.82 77.18,19.48 53.15,20.01 88.46,39.16 132.5,56.78 23.4,9.34 44.72,19.62 64.11,30.67 50.14,28.66 97.73,58.79 142.61,90.31 59.03,41.41 107.62,97.73 154.28,157.52 74.87,95.87 133.57,177.14 186.57,270 16.53,28.97 31.13,56.78 43.72,83.44 17.08,35.85 35.16,71.53 54.32,107.15 8.03,14.92 17.15,28.74 27.27,41.33 6.18,7.65 5.41,16.54 6.18,25.65 0.46,5.17 4.56,9.35 9.73,9.81 34.92,3.17 71.62,10.74 72.47,54.62 0.46,27.2 7.03,52.46 6.57,79.73 -0.4,22.17 -0.85,43.26 -1.47,63.11 -0.31,9.36 -2.55,18.63 -6.57,27.12 -9.97,20.71 -22.71,41.41 -25.26,64.74 -1.86,16.76 -1.71,33.92 0.54,51.3 4.94,38.16 -0.38,76.1 -4.41,113.79 -1.39,13.06 -1,26.34 1.09,40.02 4.32,28.35 -5.64,58.33 -12.99,86.29 -3.62,13.84 -8.96,27.5 -16.06,40.95 -9.66,18.31 -19.16,37.24 -28.67,56.86 -2.54,5.25 -3.85,11.05 -3.85,16.84 -0.16,56.7 -0.54,114.57 -1.09,173.59 -0.07,11.43 0.39,23.1 1.55,35 1.85,20.62 -17.69,39.4 -33.07,51.37 -1.08,0.85 -1.23,1.78 -0.46,2.86l1.08 1.7c0.08,0.16 0.23,0.16 0.39,0.08 11.81,-6.87 24.49,-11.66 38.01,-14.53 5.4,-1.16 10.74,2.24 12.13,7.57 9.04,35.08 11.89,67.14 8.42,96.19 -2.09,17.07 1.16,32.6 4.86,48.98 0.62,2.7 0.54,5.32 -0.15,7.95 -4.56,16.45 0.39,30.6 -2.08,46.67 -2.4,15.06 -2.56,33.37 -0.47,54.84 1.7,17.85 2.39,36.7 2.08,56.4 -1.3,76.71 -0.61,154.66 2.02,233.93 1.85,56 3.16,107.46 3.86,154.5 1.07,68.06 3.25,136.98 6.41,206.89 0.54,10.82 4.4,18.77 11.51,26.74 5.64,6.33 6.72,15.52 2.78,23.02 -18.47,34.68 -40.09,65.9 -64.97,93.63 -14.91,16.69 -27.81,34.3 -38.7,52.84 -15.53,26.42 -34.3,52.92 -56.17,79.42 -45.96,55.78 -85.76,116.81 -124.92,176.99 -4.56,7.1 -14.21,14.21 -28.9,21.4 -1.46,0.7 -2.54,0.3 -3.39,-1.08l-12.83 -22.18c-1.16,-2.09 -1.85,-4.25 -1.92,-6.64 -0.55,-9.27 -1.01,-18.69 -1.32,-28.19 -0.7,-20.48 4.48,-39.33 3.55,-59.65 -0.31,-6.87 0.7,-13.44 2.94,-19.62 8.65,-23.87 5.71,-45.66 5.79,-70.61 0,-10.43 0.78,-25.65 2.32,-45.66 2.63,-34.06 2.7,-70.07 0.23,-108.16 -0.92,-13.97 -7.41,-24.33 -3.01,-39.01 9.51,-31.44 17.76,-62.58 24.87,-93.4 3.87,-16.69 19.94,-35.69 19.01,-51.3 -4.25,-70.38 -4.87,-141.76 -2.01,-214.14 0.54,-14.3 -0.38,-28.13 -2.94,-41.49 -8.26,-43.26 -5.1,-88.61 -0.38,-134.12 0,-0.38 -0.07,-0.38 -0.23,0zm-997.59 -2399.75c-16.77,7.11 -32.75,15.76 -47.97,26.03 -22.1,14.91 -32.45,39.02 -52.08,54.93 -22.32,18.08 -49.29,31.98 -73.38,50.37 -30.83,23.41 -64.36,45.58 -100.75,66.67 -11.66,6.73 -26.03,11.59 -43.1,14.6 -16,2.86 -30.13,11.2 -44.27,18.7 -24.18,12.9 -49.13,0 -71.85,-9.19 -4.09,-1.71 -8.65,1.31 -8.72,5.71 -1.16,47.75 -19.94,87.6 -56.25,119.67 -2.7,2.4 -5.95,3.56 -9.58,3.32 -15.84,-1 -31.13,-2.94 -45.97,-5.95 -45.96,-9.19 -90.92,-18.92 -134.72,-29.2 -13.37,-3.16 -30.6,-4.1 -42.88,3.24 -55.55,33.38 -105.45,93.41 -140.06,147.48 -52.69,82.43 -116.35,166.72 -157.99,250.62 -18.93,38.08 -37.31,80.49 -55.23,127.31 -16.54,43.19 -39.4,82.05 -58.56,124.23 -6.88,15.14 -15.76,25.57 -26.58,31.36 -44.89,23.87 -42.57,70.85 9.66,83.36 2.7,13.21 8.49,22.87 17.45,28.97 18.24,12.44 40.02,16.53 65.36,12.29 -41.33,20.93 -70.15,39.16 -86.52,54.77 -67.29,64.05 -56.86,143.69 -17.7,219.56 16.77,32.44 31.6,64.89 44.66,97.34 -4.95,64.04 -4.41,127.78 1.62,191.27 1.78,18.7 1.94,34.85 0.62,48.45 -1.62,16.15 -1.62,32.29 0,48.59 1.01,9.81 4.33,10.66 10.04,2.71l11.52 -16.07c6.25,-2.63 11.74,-8.27 16.29,-16.92 10.28,-11.74 21.02,-24.65 37.32,-26.81 23.87,-3.09 44.19,0.31 60.95,10.28 28.89,17.07 56.55,35.76 82.9,56.23 17.3,13.45 36,24.73 56.08,33.76 43.34,19.55 83.28,41.65 128.17,56.09 10.28,3.32 20.16,7.26 29.51,11.83 40.71,19.77 81.04,32.74 120.9,38.85 36.77,5.72 70.93,13.45 102.51,23.26 20.79,6.48 42.19,11.9 64.13,16.22 20.01,3.94 41.48,9.03 64.36,15.14 34.68,9.35 74.86,15.45 120.43,18.38 31.22,2.01 63.97,6.03 98.27,12.06 27.66,4.87 51.37,17.15 71.15,36.85 21.48,21.33 26.04,57.7 28.74,86.14 8.27,85.68 18.16,172.04 29.82,258.95 0.08,0.55 0.31,0.78 0.77,0.7 0.23,0 0.54,-0.08 0.78,-0.15 0.69,-0.39 1.08,-1 1.08,-1.86 -0.31,-30.05 7.33,-59.8 9.96,-89.77 6.11,-68.84 13.75,-143.38 22.95,-223.57 3.79,-33.15 28.43,-65.9 64.2,-64.35 10.19,0.38 20.62,-0.24 31.29,-2.01 12.97,-2.16 28.19,-3.41 45.66,-3.63 21.16,-0.31 48.43,-2.09 81.81,-5.33 86.6,-8.42 163.7,-19.7 231.45,-33.85 39.71,-8.26 79.8,-17.22 120.28,-26.8 33.61,-7.96 66.05,-18.62 97.27,-31.98 55.78,-23.87 111.55,-48.52 167.33,-73.94 34.84,-15.83 68.53,-37.62 101.05,-58.64 23.41,-15.13 43.57,-23.48 60.65,-24.94 27.42,-2.4 48.12,7.18 62.03,28.73 5.95,9.2 14.3,14.99 25.03,17.47 3.17,0.69 6.1,-1.78 5.87,-5.03 -1.93,-29.98 6.18,-58.17 4.56,-88.84 -1.31,-24.11 0.46,-44.03 5.49,-59.87 14.91,-46.74 33.6,-91.09 28.35,-142.38 -1.7,-17 -0.62,-32.92 1.08,-49.68 0.39,-3.25 -1.08,-4.48 -4.25,-3.78 -2.71,0.62 -4.48,2.31 -5.25,5.01 -17.08,59.72 -50.99,111.49 -101.75,155.37 -50.6,43.8 -92.93,76.24 -126.92,97.41 -29.52,18.39 -59.5,36.39 -90.01,54 -22.48,12.99 -46.82,21.79 -69.06,34.92 -35.46,20.86 -73.63,40.33 -114.65,58.33 -25.65,11.28 -47.12,18 -64.43,20.16 -97.34,12.36 -190.36,21.48 -279.12,27.27 -28.04,1.86 -83.66,1.16 -166.94,-2.08 -34.38,-1.31 -49.53,-15.45 -58.1,-48.13 -8.58,-32.98 -13.29,-63.2 -13.99,-90.77 -1.31,-50.53 -5.48,-100.43 -12.52,-149.8 13.06,-18.31 23.88,-30.13 32.53,-35.61 23.72,-14.92 47.51,-30.13 71.47,-45.59 44.34,-28.66 97.34,-30.89 133.87,-72.77 16.69,-19.08 32.69,-40.02 47.91,-62.65 26.88,-39.87 60.72,-40.95 102.58,-48.75 31.6,-5.87 62.04,-19.39 91.32,-40.56 2.63,-1.86 3.17,-5.48 1.23,-8.11 -17.99,-24.33 -32.83,-49.83 -44.49,-76.63 -14.91,-34.39 -38.08,-59.1 -61.65,-85.37 -16.61,-18.62 -20.78,-39.25 -12.36,-61.89 31.36,21.17 65.35,35.23 102.05,42.19 26.81,5.1 46.13,9.58 58.02,13.44 50.84,16.61 102.59,31.9 155.29,46.04 10.88,2.94 21.31,4.94 31.2,6.03 26.97,2.86 52.39,8.73 79.19,10.04 32.91,1.62 66.44,4.79 100.67,9.51 1,0.15 1.61,-0.24 1.77,-1.25l0.39 -2.31c0,-0.08 -0.08,-0.16 -0.16,-0.16 -32.06,-6.25 -63.35,-15.52 -93.79,-27.73 0.47,-4.56 -2.94,-6.95 -10.27,-7.18 -0.47,0 -0.78,0.23 -0.85,0.69 -0.16,0.7 -0.31,1.32 -0.47,2.01l-8.73 -3.47c1.71,0.53 3.32,0.84 4.95,0.84 2.24,-0.07 2.55,-0.84 1,-2.39 -1.61,-1.62 -3.55,-2.62 -5.79,-3.02 -2.78,-0.54 -3.4,0.31 -1.77,2.71 0.38,0.61 0.92,1.23 1.61,1.86 -17.14,-7.73 -32.98,-16.85 -50.75,-23.18 -41.95,-14.84 -86.68,-33.53 -134.19,-56.09 -35.93,-17.15 -60.26,-47.43 -96.41,-61.26 -30.29,-11.52 -60.34,-23.49 -90.16,-35.93l0.08 -18.15 63.89 14.52c9.03,2.09 9.88,0.23 2.55,-5.41 -4.87,-3.78 -9.97,-6.87 -15.45,-9.27 -21.48,-9.5 -21.56,-37.54 -52.61,-32.98 -2.56,-1.39 -5.18,-2.39 -7.96,-3.1 -1.32,-0.3 -1.4,-0.76 -0.24,-1.46 0.24,-0.15 0.39,-0.39 0.39,-0.62 0.23,-1.54 -0.39,-2.63 -1.86,-3.16 -23.02,-9.05 -43.33,-21.71 -60.95,-38.17 3.94,1 9.89,2.4 13.14,4.87 20.31,15.6 40.94,26.65 61.87,33.14 17.54,5.49 36.16,11.97 55.71,19.62 41.1,15.91 91.39,21.79 124.06,48.98 12.99,10.82 27.82,12.83 42.65,19.08 9.89,4.18 20.63,10.28 32.14,18.24 73.78,50.83 153.05,83.43 242.12,100.04 37.24,6.87 73.23,14.06 107.92,21.48 18.62,4.01 36.78,10.35 54,18.15 24.8,11.28 53.15,-3.71 63.97,-25.81 8.35,-17.07 18.15,-45.19 5.87,-62.02 -1.78,-2.4 -4.32,-4.1 -7.19,-4.79 -13.9,-3.17 -27.73,-4.57 -41.4,-4.26 -41.48,1.01 -77.49,-1.16 -108,-6.57 -50.38,-8.96 -107.16,-25.18 -170.28,-48.67 -32.05,-11.97 -65.27,-18.77 -98.81,-25.49 -22.71,-4.55 -46.27,-11.43 -70.76,-20.78 -45.81,-17.53 -94.17,-33.53 -145.09,-48.13 -21.55,-6.18 -42.25,-4.94 -62.95,-15.6 -23.96,-12.28 -48.83,-14.84 -61.96,-42.88 -1.09,-2.24 1.54,-4.41 3.63,-3.01 31.9,21.78 68.99,31.29 106.53,36.46 5.03,0.7 5.41,-0.38 1.31,-3.32 -50.44,-35.69 -99.73,-70.77 -147.86,-105.3 -24.64,-17.69 -50.52,-42.33 -77.48,-73.85 -18.47,-21.71 -38.47,-50.83 -60.04,-87.53 -28.5,-48.6 -51.99,-89.92 -70.29,-124 -22.48,-41.79 -40.4,-89.69 -53.62,-143.53 1.47,-3.71 1.24,-7.04 -0.69,-9.9 -0.16,-0.22 -0.31,-0.22 -0.47,0.09 -0.23,0.61 -0.38,1.23 -0.62,1.92 -0.53,-1.7 -0.69,-3.01 -0.62,-3.86l-14.21 -72.31c-8.26,-68.06 -18.15,-136.12 -29.51,-204.11 -5.64,-33.99 -13.13,-66.9 -22.4,-98.65 -13.13,-45.04 -22.1,-91.39 -26.89,-139.21 -0.07,-1.16 -0.7,-1.93 -1.77,-2.4 -0.24,-0.08 -0.55,-0.15 -0.78,-0.15 -1.38,0.15 -2.16,1 -2.23,2.47 -1.63,20.78 -3.18,41.72 -4.64,62.65 -2.32,32.38 -11.51,63.58 -27.66,93.64zm675.51 1028.25c0.85,-3.32 -0.93,-5.24 -5.41,-5.79 -2.54,-0.38 -3.78,0.55 -3.86,2.63 -2.09,0.08 -4.63,-0.62 -7.49,-2.08 0.54,-0.4 1.08,-0.78 1.63,-1.16 0.07,-0.09 0.07,-0.24 0,-0.31 -6.19,-6.26 -13.06,-7.11 -20.56,-2.4 -15.52,-19.01 -36.07,-30.52 -61.72,-34.46 -3.48,-0.54 -6.26,0.7 -8.19,3.72l-8.34 12.97c-2.09,3.32 -1.4,5.71 2.16,7.34 41.79,18.62 84.35,26.81 128.01,38.48 23.17,6.1 24.87,2.39 5.17,-11.28 -1.47,-1.01 -8.65,-3.56 -21.4,-7.66zm549.69 482.7c2.69,-1.24 2.69,-6.96 -0.05,-12.83 -2.67,-5.88 -7.08,-9.58 -9.73,-8.35 -2.68,1.24 -2.68,6.96 0.06,12.82 2.67,5.88 7.08,9.59 9.72,8.36zm-821.85 853.97c-6.49,-10.28 -9.5,-21.1 -9.05,-32.6 0.86,-21.95 -2.08,-42.88 -8.96,-62.89 -0.69,-1.78 -1.92,-2.78 -3.86,-2.86 -0.84,0 -1.46,0.3 -2,0.85 -1.32,1.39 -1.86,3.01 -1.7,4.86 2.46,30.13 1.46,60.26 -3.09,90.47 -5.18,34.84 1,69.07 11.12,101.2 2.01,6.34 10.43,7.58 14.13,2.09 7.89,-11.67 18.32,-21.4 31.22,-29.2 7.49,-4.56 14.52,-3.94 21.08,1.78 1.4,1.15 2.56,2.54 3.48,4.01 3.79,6.11 2.56,11.05 -3.7,14.68 -40.56,23.95 -72.47,55.94 -118.51,72.31 -7.73,2.78 -10.82,12.05 -6.26,18.85 9.82,14.6 21.09,28.67 33.84,42.18 14.29,15.06 19.08,12.52 14.44,-7.72l-9.27 -40.49c-0.62,-2.7 1.39,-5.25 4.17,-5.25l12.29 0c3.32,0 4.94,1.62 4.94,4.94 0.16,35.93 -5.56,88.23 11.9,121.06 52.23,98.43 108.39,207.74 22.02,304.08 -26.12,29.12 -52.93,55.15 -82.2,80.35 -1.86,1.54 -2.93,3.86 -3.09,6.25 -4.01,70.68 -2.86,143.93 -7.26,213.15 -3.25,51.37 -6.87,100.66 -10.82,147.7 -0.93,10.9 4.09,16 14.99,15.15 28.97,-2.16 57.71,-7.03 86.37,-5.18 29.28,1.93 58.1,2.94 86.37,3.16 49.14,0.47 97.95,7.73 147.09,15.84 21.55,3.64 40.64,11.52 57.09,23.65 2.09,1.54 3.25,3.63 3.48,6.17l2.63 35.54c0.62,8.27 5.02,12.67 13.28,13.37l39.25 3.17c9.04,0.69 12.9,-3.41 11.51,-12.37 -3.78,-24.8 -13.21,-46.27 5.95,-68.28 23.49,-27.2 45.2,-47.75 61.26,-81.28 1.16,-2.4 1.32,-4.94 0.54,-7.5 -22.02,-73 -38.93,-138.2 -50.75,-195.6 -19.85,-96.11 -22.79,-203.26 -8.97,-321.46 10.2,-86.68 43.03,-161.77 89.54,-233.3 1.47,-2.4 2.25,-4.95 2.25,-7.73 0.07,-37.71 5.4,-66.59 16.06,-86.69 25.42,-48.05 48.36,-97.03 68.84,-147.01 10.5,-25.88 27.26,-49.28 52.68,-62.34 3.02,-1.47 6.57,-0.08 7.81,3.01l14.99 38.24c1.16,3.01 3.16,5.1 6.09,6.42 49.53,22.33 100.36,37.85 152.36,46.73 3.47,0.54 5.17,-0.93 5.17,-4.4 -0.07,-14.76 0.85,-29.2 2.78,-43.49 3.86,-30.13 -1.47,-60.42 0.23,-91.79 0.78,-13.75 0.54,-28.57 -0.69,-44.57 -2.86,-37.39 -1.86,-75.32 3.01,-113.72 0.31,-2.54 -0.7,-4.41 -3.09,-5.48 -8.26,-3.79 -16.07,-4.64 -23.41,-2.55 -10.66,3.01 -20.32,-7.03 -17,-17.62 4.87,-15.53 13.83,-29.89 26.74,-43.26 3.16,-3.25 0.84,-8.73 -3.64,-8.73 -13.67,-0.07 -26.03,2.78 -37.08,8.58 -21.01,10.89 -43.03,21.55 -66.13,31.82 -11.82,5.33 -23.63,6.49 -35.46,3.56 -8.19,-2.01 -11.97,-7.19 -11.28,-15.61 0.7,-9.88 4.56,-17.45 11.59,-22.78 25.49,-19.47 49.06,-37.86 59.88,-69.77 0.84,-2.39 0.46,-5.1 -1.01,-7.11 -5.17,-7.18 -11.59,-13.51 -19.23,-18.99 -2.25,-1.63 -3.56,-3.72 -4.03,-6.42 -1.85,-12.13 -2.31,-24.33 -1.38,-36.77 0.92,-12.59 -3.17,-24.88 -13.99,-32.06 -28.89,-19.24 -71.46,-23.72 -92.71,9.34 -14.91,23.33 -6.87,49.53 -21.24,74.78 -16.53,29.37 -27.88,61.81 -43.95,92.24 -6.34,11.98 -15.77,30.13 -12.9,43.97 1.23,5.71 0.53,11.12 -2.17,16.14 -10.89,20.63 -25.26,36.16 -43.11,46.59 -27.12,15.84 -25.57,63.96 -24.56,90.61 0.76,19.94 -5.03,45.66 -17.47,77.18 -43.72,110.71 -128.63,45.97 -201.32,25.57 -13.83,-3.86 -28.97,-4.71 -45.35,-2.62 -56.47,7.33 -108.69,19.92 -156.6,37.85 -2.62,1.01 -4.7,0.31 -6.17,-2zm-776.18 375.68c-4.17,-96.11 1.08,-200.01 15.68,-311.79 3.79,-29.06 3.86,-57.02 0.23,-83.9 -10.89,-80.81 -97.57,-59.41 -150.95,-44.66 -79.73,22.09 -152.96,42.34 -233.38,54.62 -6.42,1 -6.42,1.31 0.07,1.08 35.69,-1.39 85.83,-7.41 119.13,7.57 3.09,1.4 2.85,5.8 -0.31,6.95 -4.41,1.63 -8.81,2.25 -13.21,1.94 -33.92,-2.56 -68.06,-4.25 -102.36,-5.26 -46.51,-1.38 -83.98,9.58 -87.76,63.27 -1.94,28.05 -4.88,54.93 -8.66,80.66 -3.17,22.02 -12.75,51.76 -28.58,89.08 -20.48,48.28 -11.83,100.58 -23.87,150.72 -7.19,30.05 -13.75,60.72 -19.7,92.16 -2.24,11.82 -1.55,22.64 2.08,32.45 11.83,32.29 20.32,62.8 16.53,98.03 -5.56,51.38 -12.28,100.82 -20.23,148.33 -3.95,23.41 -3.72,46.67 -4.1,70.15 -0.07,3.09 1.08,5.64 3.48,7.57 67.05,56.24 127.69,80.5 214.53,51.92 92.94,-30.6 166.72,-74.55 221.34,-131.8 23.24,-24.49 49.36,-63.27 78.26,-116.35 6.26,-11.5 9.58,-23.48 10.12,-36.07 3.01,-76.56 15.06,-149.1 11.66,-226.67z"/>
   <path class="fil1" d="M4973.69 2575.23c-1,2.32 -6.02,2.32 -11.24,0.08 -5.21,-2.25 -8.6,-5.96 -7.6,-8.28 1,-2.31 6.02,-2.31 11.24,-0.08 5.21,2.25 8.62,5.96 7.6,8.28z"/>
   <path class="fil2" d="M4651.39 2598.48c-7.81,20.78 -16.15,41.64 -24.88,62.57 -9.34,22.33 -15.91,42.88 -19.54,61.65 -14.37,73.71 -34.61,146.4 -44.04,220.57 -3.16,25.03 -6.41,49.98 -9.73,74.93 0,0.08 0,0.08 0.08,0.08l2.23 0.38c0.85,0.24 1.4,-0.15 1.63,-1.07 7.88,-32.07 16.69,-64.36 26.5,-96.89 8.57,-28.5 16.37,-59.79 23.41,-93.78 7.34,-35.46 15.52,-69.91 24.72,-103.52 8.42,-1.93 11.66,-9.73 9.89,-23.41l35.92 -92.4c1.39,-3.63 2.63,-3.55 3.79,0.09 19.15,62.49 33.75,129.39 43.8,200.77 8.65,61.5 7.73,121.45 10.81,183.56 2.63,51.3 3.79,106.23 18.7,153.9 20.09,63.89 51.53,114.33 86.99,170.65 49.98,79.41 117.66,138.51 203.02,177.22 17.62,16.46 37.93,29.12 60.95,38.17 1.47,0.53 2.09,1.62 1.86,3.16 0,0.23 -0.15,0.47 -0.39,0.62 -1.16,0.7 -1.08,1.16 0.24,1.46 2.78,0.71 5.4,1.71 7.96,3.1 -6.04,2.78 -10.12,6.64 -12.37,11.58 -2.08,4.72 -1.47,8.96 1.94,12.91 2.85,3.32 6.87,6.17 12.05,8.65l-0.08 18.15c-48.9,-20.01 -95.03,-45.12 -138.37,-75.47 -31.05,-21.71 -57.63,-48.14 -86.29,-73.01 -31.6,-27.43 -56.85,-65.74 -86.44,-98.03 -8.04,-8.74 -8.96,-8.04 -2.86,2.08 11.66,19.4 23.49,39.25 35.3,59.72 21.4,37.16 51.53,73.31 79.88,106.45 24.11,28.28 40.79,68.68 67.99,95.03 14.99,14.52 44.34,38.47 87.99,71.84 -8.42,22.64 -4.25,43.27 12.36,61.89 23.57,26.27 46.74,50.98 61.65,85.37 11.66,26.8 26.5,52.3 44.49,76.63 1.94,2.63 1.4,6.25 -1.23,8.11 -29.28,21.17 -59.72,34.69 -91.32,40.56 -41.86,7.8 -75.7,8.88 -102.58,48.75 -15.22,22.63 -31.22,43.57 -47.91,62.65 -36.53,41.88 -89.53,44.11 -133.87,72.77 -23.96,15.46 -47.75,30.67 -71.47,45.59 -8.65,5.48 -19.47,17.3 -32.53,35.61 -2.31,-47.35 -8.34,-93.55 -7.71,-140.68 1.15,-78.42 -1.16,-152.04 -6.8,-220.87 -4.17,-50.83 -3.25,-104.22 -6.73,-156.21 -2,-30.82 2.25,-61.8 0.16,-93.48 -1.47,-22.32 -2.01,-45.42 -1.7,-69.38 0.69,-50.59 -0.54,-101.89 -3.71,-153.81 -2.39,-41.18 -0.46,-91.62 5.87,-151.34 2.7,-25.34 -1,-49.44 0.54,-74.78 2.32,-38.09 -7.8,-75.17 -5.95,-114.18 0.08,-1.16 -0.54,-1.71 -1.7,-1.78l-0.08 0c-0.85,-0.08 -1.38,0.38 -1.46,1.32 -4.09,57.32 -8.35,113.71 -18.38,170.88 -8.42,47.89 -13.91,96.25 -16.46,145.01 -0.93,17.15 -6.72,36.61 -7.58,51.3 -2.54,47.51 -5.95,94.94 -10.19,142.38 -3.4,38 -0.24,80.26 -3.09,110.62 -8.42,91.55 -13.75,182.87 -15.92,274.1 -1,44.89 8.19,100.13 3.33,151.03 -2.01,20.63 -2.63,40.8 -1.78,60.65 1.93,46.66 3.09,93.71 3.4,141.14 0.16,29.36 -2.47,57.32 -7.96,83.9 -7.64,37 -15.75,65.74 -24.41,86.29 -23.03,55.01 -71.77,71 -127.39,72.85 -44.97,1.55 -87.45,6.57 -132.42,1.4 -83.97,-9.74 -162.23,-30.37 -245.28,-50.92 -33.84,-8.34 -63.89,-18.69 -90.24,-31.13 -30.44,-14.29 -60.48,-29.04 -90.15,-44.11 -32.99,-16.77 -60.34,-41.64 -94.25,-58.4 -45.73,-22.64 -87.22,-52.23 -129.17,-81.12 -34.54,-23.8 -65.43,-54.08 -94.79,-83.67 -31.99,-32.29 -39.71,-70.14 -53.85,-109.23 -4.25,-11.9 -8.11,-11.75 -11.5,0.38 -1.16,3.94 -1.09,10.12 0.07,18.39 -13.06,-32.45 -27.89,-64.9 -44.66,-97.34 -39.16,-75.87 -49.59,-155.51 17.7,-219.56 16.37,-15.61 45.19,-33.84 86.52,-54.77l76.4 -1.55c5.95,-0.15 6.26,1.08 0.93,3.78 -12.05,6.03 -23.56,12.14 -34.53,18.31 -17.84,10.12 -36,7.27 -55.23,9.74 -0.47,0.07 -0.78,0.31 -1.01,0.77l-0.85 1.78c-0.85,1.78 0.31,3.86 2.24,4.25 14.75,2.85 31.13,4.48 49.14,4.71 23.56,0.31 42.63,-16.07 63.73,-24.8 10.5,-4.33 21.55,-10.58 33.07,-18.77 17.3,-12.28 36.92,-24.65 58.79,-36.93 54.62,-30.67 111.63,-61.19 171.04,-91.55 12.59,-6.41 19.39,-18.61 32.6,-23.17 29.74,-10.12 55.78,-26.5 85.75,-35.23 52.07,-15.22 101.9,-40.48 149.56,-75.95 27.12,-20.15 46.28,-43.02 70.46,-65.35 0.69,-0.7 0.78,-1.39 0.16,-2.09l-0.09 0c-0.45,-0.53 -1,-0.62 -1.61,-0.22 -19.94,14.75 -41.33,28.66 -64.28,41.63 -40.56,22.95 -86.76,32.6 -127.55,54.86 -14.28,7.8 -29.12,14.44 -44.5,19.93 -28.5,10.2 -49.05,29.74 -71.61,48.2 -21.25,17.38 -50.68,31.06 -76.56,34.85 -41.87,6.02 -79.89,22.86 -120.83,31.67 -58.86,12.75 -121.75,18.54 -188.73,17.54 -33.45,-0.54 -63.51,-8.81 -95.87,-7.81 -3.17,0.08 -5.48,3.17 -4.72,6.26l11.29 43.88c-52.23,-12.51 -54.55,-59.49 -9.66,-83.36 10.82,-5.79 19.7,-16.22 26.58,-31.36 19.16,-42.18 42.02,-81.04 58.56,-124.23 17.92,-46.82 36.3,-89.23 55.23,-127.31 41.64,-83.9 105.3,-168.19 157.99,-250.62 34.61,-54.07 84.51,-114.1 140.06,-147.48 12.28,-7.34 29.51,-6.4 42.88,-3.24 43.8,10.28 88.76,20.01 134.72,29.2 14.84,3.01 30.13,4.95 45.97,5.95 3.63,0.24 6.88,-0.92 9.58,-3.32 36.31,-32.07 55.09,-71.92 56.25,-119.67 0.07,-4.4 4.63,-7.42 8.72,-5.71 22.72,9.19 47.67,22.09 71.85,9.19 14.14,-7.5 28.27,-15.84 44.27,-18.7 17.07,-3.01 31.44,-7.87 43.1,-14.6 36.39,-21.09 69.92,-43.26 100.75,-66.67 24.09,-18.39 51.06,-32.29 73.38,-50.37 19.63,-15.91 29.98,-40.02 52.08,-54.93 15.22,-10.27 31.2,-18.92 47.97,-26.03zm-266.92 734.76c-27.27,20.71 -55.31,41.34 -84.28,61.97 -14.44,10.27 -27.74,22.94 -39.86,37.84 -23.18,28.52 -48.9,53.31 -77.18,74.41 -3.32,2.47 -3.09,3.01 0.85,1.62 30.28,-11.2 58.63,-26.81 85.06,-46.82 17.54,-13.28 31.75,-28.05 42.49,-44.27 20.71,-31.13 46.2,-58.17 74.32,-81.57 0.54,-0.55 0.61,-1.09 0.15,-1.63l-1.23 -1.55c-0.08,-0.07 -0.16,-0.07 -0.32,0zm-598.25 436.88c4.16,3.33 11.2,3.02 21.09,-0.93 -3.63,-0.84 -2.47,-1.08 3.63,-0.69 7.49,2.7 14.76,2.55 21.94,-0.31l60.95 -6.49c1,2.55 3.17,2.55 6.64,0.16 3.02,-1.24 6.03,-1.78 9.2,-1.55 4.01,1.24 8.5,1.24 13.37,0.08l17.92 -1.94c2.94,0.62 5.25,0.39 7.02,-0.62l22.1 -4.86 6.96 -0.38c0.22,-0.55 0.46,-1.09 0.69,-1.63 102.6,-15.22 205.89,-56.17 275.73,-131.95 13.28,-7.57 24.4,-17.31 33.29,-29.28l32.76 -27.27c2.85,1.62 4.63,0.46 5.24,-3.48 1.56,-2.54 3.1,-3.63 4.57,-3.25l42.72 -33.6c-1.32,0.08 -0.93,-0.46 1.31,-1.62 0.23,0.61 0.47,1.24 0.7,1.77 0,0.09 0.08,0.16 0.15,0.09 10.2,-3.64 16.22,-9.66 18.16,-18.16 32.6,-33.92 66.74,-66.05 102.51,-96.49 0.85,-0.7 0.93,-1.39 0.23,-2.24l-0.07 0c-0.7,-0.93 -1.54,-1 -2.47,-0.31 -34.7,28.04 -71.39,52.15 -110.09,72.39 -47.51,24.87 -92.4,51.6 -138.6,77.41 -21.63,12.05 -44.72,17.45 -67.13,27.27 -53.77,23.56 -109.78,45.11 -168.03,64.81 -36.69,12.37 -71.23,31.22 -108.24,41.88 -44.8,12.9 -87.05,26.8 -126.69,41.56 -34.53,12.83 -69.07,16.3 -102.9,28.35 -2.32,0.85 -4.18,2.32 -5.49,4.48 -1.23,1.93 0.08,4.48 2.4,4.63 28.04,1.63 56.54,1.16 85.51,-1.54 9.36,-0.85 20.32,0.38 32.92,3.71zm310.56 670.03c35.77,27.43 74.16,43.03 115.19,46.74 16.91,1.55 18,-1.86 3.16,-10.2 -5.48,-3.09 -10.81,-7.5 -16.14,-13.21 -20.94,-22.79 -51.38,-10.67 -76.48,-18.31 -7.8,-2.39 -15.77,-5.26 -23.72,-8.58 -9.73,-4.01 -10.43,-2.85 -2.01,3.56zm330.11 58.41c0.08,-0.85 -0.31,-1.4 -1.16,-1.56 -24.49,-4.48 -48.36,-11.58 -71.46,-21.39 -9.82,-4.17 -19.47,-5.87 -29.12,-5.02 -24.11,2.08 -46.28,2.16 -66.6,0.23 -1.77,-0.16 -3.09,0.54 -4.02,2 -0.54,0.94 -0.31,2.17 0.78,3.72 0.85,1.23 1.93,2.16 3.24,2.77 23.48,10.98 47.97,16.93 73.55,17.85 32.21,1.16 63.58,2.32 94.25,3.63 0.23,0 0.31,-0.07 0.38,-0.31l0.16 -1.92z"/>
   <path class="fil1" d="M4392.36 3504.21c-1.94,8.5 -7.96,14.52 -18.16,18.16 -0.07,0.07 -0.15,0 -0.15,-0.09 -0.23,-0.53 -0.47,-1.16 -0.7,-1.77l19.01 -16.3z"/>
   <polygon class="fil1" points="3977.04,3752.59 3970.08,3752.97 "/>
   <path class="fil1" d="M3947.98 3757.83c-1.77,1.01 -4.08,1.24 -7.02,0.62l7.02 -0.62z"/>
   <path class="fil1" d="M3918.09 3759.77l4.95 0.62c-4.87,1.16 -9.36,1.16 -13.37,-0.08 2.55,-0.85 5.33,-1.08 8.42,-0.54z"/>
   <path class="fil1" d="M3807.31 3769.19c-9.89,3.95 -16.93,4.26 -21.09,0.93 5.79,-1.55 12.82,-1.86 21.09,-0.93z"/>
   <path class="fil2" d="M5876.59 4109.43c-2.64,1.23 -7.05,-2.48 -9.72,-8.36 -2.74,-5.86 -2.74,-11.58 -0.06,-12.82 2.65,-1.23 7.06,2.47 9.73,8.35 2.74,5.87 2.74,11.59 0.05,12.83z"/>
   <path class="fil2" d="M5060.91 4965.4c47.91,-17.93 100.13,-30.52 156.6,-37.85 16.38,-2.09 31.52,-1.24 45.35,2.62 72.69,20.4 157.6,85.14 201.32,-25.57 12.44,-31.52 18.23,-57.24 17.47,-77.18 -1.01,-26.65 -2.56,-74.77 24.56,-90.61 17.85,-10.43 32.22,-25.96 43.11,-46.59 2.7,-5.02 3.4,-10.43 2.17,-16.14 -2.87,-13.84 6.56,-31.99 12.9,-43.97 16.07,-30.43 27.42,-62.87 43.95,-92.24 14.37,-25.25 6.33,-51.45 21.24,-74.78 21.25,-33.06 63.82,-28.58 92.71,-9.34 10.82,7.18 14.91,19.47 13.99,32.06 -0.93,12.44 -0.47,24.64 1.38,36.77 0.47,2.7 1.78,4.79 4.03,6.42 7.64,5.48 14.06,11.81 19.23,18.99 1.47,2.01 1.85,4.72 1.01,7.11 -10.82,31.91 -34.39,50.3 -59.88,69.77 -7.03,5.33 -10.89,12.9 -11.59,22.78 -0.69,8.42 3.09,13.6 11.28,15.61 11.83,2.93 23.64,1.77 35.46,-3.56 23.1,-10.27 45.12,-20.93 66.13,-31.82 11.05,-5.8 23.41,-8.65 37.08,-8.58 4.48,0 6.8,5.48 3.64,8.73 -12.91,13.37 -21.87,27.73 -26.74,43.26 -3.32,10.59 6.34,20.63 17,17.62 7.34,-2.09 15.15,-1.24 23.41,2.55 2.39,1.07 3.4,2.94 3.09,5.48 -4.87,38.4 -5.87,76.33 -3.01,113.72 1.23,16 1.47,30.82 0.69,44.57 -1.7,31.37 3.63,61.66 -0.23,91.79 -1.93,14.29 -2.85,28.73 -2.78,43.49 0,3.47 -1.7,4.94 -5.17,4.4 -52,-8.88 -102.83,-24.4 -152.36,-46.73 -2.93,-1.32 -4.93,-3.41 -6.09,-6.42l-14.99 -38.24c-1.24,-3.09 -4.79,-4.48 -7.81,-3.01 -25.42,13.06 -42.18,36.46 -52.68,62.34 -20.48,49.98 -43.42,98.96 -68.84,147.01 -10.66,20.1 -15.99,48.98 -16.06,86.69 0,2.78 -0.78,5.33 -2.25,7.73 -46.51,71.53 -79.34,146.62 -89.54,233.3 -13.82,118.2 -10.88,225.35 8.97,321.46 11.82,57.4 28.73,122.6 50.75,195.6 0.78,2.56 0.62,5.1 -0.54,7.5 -16.06,33.53 -37.77,54.08 -61.26,81.28 -19.16,22.01 -9.73,43.48 -5.95,68.28 1.39,8.96 -2.47,13.06 -11.51,12.37l-39.25 -3.17c-8.26,-0.7 -12.66,-5.1 -13.28,-13.37l-2.63 -35.54c-0.23,-2.54 -1.39,-4.63 -3.48,-6.17 -16.45,-12.13 -35.54,-20.01 -57.09,-23.65 -49.14,-8.11 -97.95,-15.37 -147.09,-15.84 -28.27,-0.22 -57.09,-1.23 -86.37,-3.16 -28.66,-1.85 -57.4,3.02 -86.37,5.18 -10.9,0.85 -15.92,-4.25 -14.99,-15.15 3.95,-47.04 7.57,-96.33 10.82,-147.7 4.4,-69.22 3.25,-142.47 7.26,-213.15 0.16,-2.39 1.23,-4.71 3.09,-6.25 29.27,-25.2 56.08,-51.23 82.2,-80.35 86.37,-96.34 30.21,-205.65 -22.02,-304.08 -17.46,-32.83 -11.74,-85.13 -11.9,-121.06 0,-3.32 -1.62,-4.94 -4.94,-4.94l-12.29 0c-2.78,0 -4.79,2.55 -4.17,5.25l9.27 40.49c4.64,20.24 -0.15,22.78 -14.44,7.72 -12.75,-13.51 -24.02,-27.58 -33.84,-42.18 -4.56,-6.8 -1.47,-16.07 6.26,-18.85 46.04,-16.37 77.95,-48.36 118.51,-72.31 6.26,-3.63 7.49,-8.57 3.7,-14.68 -0.92,-1.47 -2.08,-2.86 -3.48,-4.01 -6.56,-5.72 -13.59,-6.34 -21.08,-1.78 -12.9,7.8 -23.33,17.53 -31.22,29.2 -3.7,5.49 -12.12,4.25 -14.13,-2.09 -10.12,-32.13 -16.3,-66.36 -11.12,-101.2 4.55,-30.21 5.55,-60.34 3.09,-90.47 -0.16,-1.85 0.38,-3.47 1.7,-4.86 0.54,-0.55 1.16,-0.85 2,-0.85 1.94,0.08 3.17,1.08 3.86,2.86 6.88,20.01 9.82,40.94 8.96,62.89 -0.45,11.5 2.56,22.32 9.05,32.6 1.47,2.31 3.55,3.01 6.17,2z"/>
   <path class="fil2" d="M4638.1 4637.53c-0.23,-0.54 -0.38,-1 -0.54,-1.54 0.54,-0.62 1.16,-1 1.85,-1.24 5.18,-1.46 5.73,-0.85 1.7,1.93 -0.54,0.39 -1.54,0.7 -3.01,0.85z"/>
   <path class="fil1" d="M4637.56 4635.99c0.16,0.54 0.31,1 0.54,1.54 -3.24,1.63 -5.02,1.55 -5.4,-0.38 1.23,-1.32 2.85,-1.7 4.86,-1.16z"/>
   <path class="fil2" d="M4278.56 5339.08c3.4,77.57 -8.65,150.11 -11.66,226.67 -0.54,12.59 -3.86,24.57 -10.12,36.07 -28.9,53.08 -55.02,91.86 -78.26,116.35 -54.62,57.25 -128.4,101.2 -221.34,131.8 -86.84,28.58 -147.48,4.32 -214.53,-51.92 -2.4,-1.93 -3.55,-4.48 -3.48,-7.57 0.38,-23.48 0.15,-46.74 4.1,-70.15 7.95,-47.51 14.67,-96.95 20.23,-148.33 3.79,-35.23 -4.7,-65.74 -16.53,-98.03 -3.63,-9.81 -4.32,-20.63 -2.08,-32.45 5.95,-31.44 12.51,-62.11 19.7,-92.16 12.04,-50.14 3.39,-102.44 23.87,-150.72 15.83,-37.32 25.41,-67.06 28.58,-89.08 3.78,-25.73 6.72,-52.61 8.66,-80.66 3.78,-53.69 41.25,-64.65 87.76,-63.27 34.3,1.01 68.44,2.7 102.36,5.26 4.4,0.31 8.8,-0.31 13.21,-1.94 3.16,-1.15 3.4,-5.55 0.31,-6.95 -33.3,-14.98 -83.44,-8.96 -119.13,-7.57 -6.49,0.23 -6.49,-0.08 -0.07,-1.08 80.42,-12.28 153.65,-32.53 233.38,-54.62 53.38,-14.75 140.06,-36.15 150.95,44.66 3.63,26.88 3.56,54.84 -0.23,83.9 -14.6,111.78 -19.85,215.68 -15.68,311.79z"/>
   <path class="fil1" d="M5443.41 6989.24c-43.27,12.67 -40.56,52.84 -40.65,88.76 -0.15,131.95 -0.22,262.36 -0.31,391.22 0,38.24 -4.32,78.8 40.02,93.79 3.41,1.16 5.11,3.48 5.11,7.11l0 42.87c0,3.1 -1.55,4.56 -4.64,4.33 -120.05,-7.96 -214.07,-90.32 -250.08,-204.18 -16.91,-53.46 -22.94,-112.33 -18.23,-176.69 11.28,-155.59 103.83,-287.39 267.46,-301.52 3.79,-0.31 5.64,1.39 5.64,5.17l0 43.42c0,2.94 -1.47,4.87 -4.32,5.72z"/>
   <path class="fil1" d="M5531.63 7050.66c-0.15,-25.42 -12.13,-52.77 -38.55,-60.49 -4.25,-1.31 -6.33,-4.18 -6.33,-8.58l0 -39.55c0,-5.49 2.7,-7.89 8.18,-7.27 180.93,20.86 266.91,170.35 266.37,341.93 -0.38,117.66 -36.46,224.66 -132.17,292.57 -40.49,28.73 -86.38,44.73 -137.67,47.98 -3.17,0.22 -4.8,-1.32 -4.8,-4.49l-0.07 -42.8c0,-3.01 1.39,-4.94 4.17,-5.95 27.04,-9.96 40.63,-31.51 40.87,-64.66 0.77,-159.99 0.77,-309.56 0,-448.69z"/>
   <path class="fil1" d="M3383.8 7382.77c-27.73,-122.21 -56.08,-247.99 -85.21,-377.38 -3.79,-16.93 4.48,-35.39 8.03,-52 0.69,-3.4 2.86,-5.09 6.33,-5.09l187.43 0c2.08,0 3.39,1.07 3.93,3.16 45.2,190.67 90.47,381.41 135.89,572.15 1.56,6.57 4.17,12.52 7.89,17.92 9.58,14.06 32.36,14.3 37.77,29.13 8.04,21.86 -10.04,34.29 -29.28,34.45 -86.83,0.62 -170.11,0.69 -249.84,0.24 -21.32,-0.16 -34.83,-16.23 -27.74,-37.55 0.86,-2.47 2.32,-4.41 4.49,-5.88 13.98,-9.72 35.77,-17.14 31.83,-39.31 -4.41,-24.96 -9.74,-49.99 -15.84,-75.25 -0.69,-2.71 -2.47,-4.09 -5.33,-4.09l-127.7 0.07c-1.78,0 -2.47,-0.93 -2.09,-2.7l11.9 -49.45c0.39,-1.69 1.47,-2.54 3.24,-2.54l99.59 0c4.01,0 5.56,-1.94 4.71,-5.88z"/>
   <path class="fil1" d="M3770.3 7538.36c2.86,-8.11 4.33,-16.91 4.33,-26.49 0,-163.4 -0.08,-323.85 -0.23,-481.45 -0.08,-38.71 -42.8,-20.17 -48.52,-50.38 -4.87,-25.95 17.08,-31.9 36.69,-31.82 73.4,0.08 147.48,0.08 222.35,0.15 3.01,0 4.55,1.47 4.55,4.48 0,172.82 0,361.24 0,565.43 0,43.03 42.1,22.17 55.78,46.35 12.59,22.33 -7.64,40.25 -28.81,40.41 -73.16,0.54 -154.59,0.69 -244.13,0.46 -20.93,-0.08 -59.02,-3.56 -44.8,-37.55 5.09,-12.2 22.09,-16.46 33.83,-20.63 4.17,-1.46 7.49,-4.79 8.96,-8.96z"/>
   <path class="fil1" d="M4146.61 7284.2c53.7,8.03 115.81,24.41 137.74,80.81 4.41,11.35 6.64,29.89 6.73,55.77 0.07,28.28 0.15,55.24 0.38,80.81 0.08,21.33 7.26,24.03 21.55,8.19 3.09,-3.4 6.11,-7.11 9.04,-11.2 10.66,-14.68 28.66,-10.89 37.47,3.01 6.88,10.74 6.26,23.18 -1.7,37.16 -30.51,53.77 -74.63,81.04 -132.49,81.82 -110.93,1.46 -147.25,-66.37 -144.23,-163.79 0.77,-24.56 0.85,-50.29 0.15,-77.09 -0.85,-37.17 -17.46,-58.34 -49.68,-63.66 -2.77,-0.39 -4.17,-2.01 -4.17,-4.87l0 -43.96c0,-3.17 1.63,-4.86 4.79,-5.26 38.78,-4.48 48.52,-27.41 49.21,-64.34 0.86,-46.05 0.71,-90.63 -0.45,-133.81 -0.86,-32.37 -17.39,-52.31 -49.68,-59.71 -2.86,-0.71 -4.33,-2.48 -4.33,-5.5l0 -45.57c0,-2.94 1.47,-4.4 4.33,-4.48 47.66,-0.94 86.99,1.15 117.89,6.17 73.24,11.98 137.35,63.28 143.92,141.38 6.42,75.79 -21.93,129.71 -84.97,161.78 -19.17,9.65 -41.65,15.06 -61.89,22.4 -5.1,1.85 -4.94,3.16 0.39,3.94z"/>
   <path class="fil1" d="M4771.83 7209.1l35.7 -123.91c3.32,-11.43 4.86,-11.2 4.79,0.7 -0.31,38.7 -0.16,77.79 0.45,117.27 0.24,16.91 -2.23,34.14 -7.49,51.6 -34.99,115.96 -69.45,231.38 -103.52,346.41 -0.85,2.86 -2.78,4.33 -5.79,4.33l-17.62 0c-2.7,0 -4.55,-1.31 -5.4,-3.87 -65.44,-194.37 -128.32,-380.16 -188.73,-557.31 -2.87,-8.42 -7.11,-16.68 -12.6,-24.64 -14.76,-21.33 -50.68,-9.66 -57.02,-38.71 -4.55,-21.08 11.36,-32.75 30.29,-32.75 80.11,0.08 155.44,0 225.97,-0.08 2.4,0 4.56,1.54 5.33,3.79l90.93 257.33c1.7,4.79 3.24,4.72 4.71,-0.16z"/>
   <path class="fil1" d="M5067.17 7525.54c0,35.31 50.3,18 48.91,53.69 -0.7,16.61 -10.67,25.19 -30.06,25.57 -54.93,1.24 -138.59,1.31 -251.15,0.31 -10.04,-0.07 -19.47,-1.7 -28.19,-5.02 -15.93,-5.87 -18.24,-27.81 -7.35,-38.93 18.23,-18.54 52.92,-3.79 52.92,-43.27 -0.08,-172.27 0,-359.85 0.16,-562.79 0,-3.72 2.94,-6.65 6.64,-6.73 75.1,-0.15 150.96,-0.15 227.59,0 33.61,0.08 40.72,40.49 11.28,50.61 -16.76,5.71 -30.75,8.57 -30.75,30.43 0.09,165.56 0.09,330.88 0,496.13z"/>
   <path class="fil1" d="M5863.97 7538.14c2.79,-8.04 4.18,-16.46 4.18,-25.34 0.08,-169.27 0,-329.97 -0.15,-482.23 -0.08,-39.01 -42.81,-20.24 -48.52,-50.53 -4.87,-25.95 17.07,-31.9 36.69,-31.9 73.4,0.08 147.56,0.16 222.42,0.23 3.01,0 4.56,1.54 4.56,4.56 -0.16,192.13 -0.16,381.41 0.08,567.98 0.07,37.93 41.32,21.09 54.77,42.87 16.92,27.66 -12.29,41.72 -35.54,41.72 -80.65,-0.08 -160.45,0 -239.41,0.08 -13.99,0 -35.61,-0.54 -42.11,-15.84 -12.12,-28.74 16.46,-35 34.61,-42.64 4.1,-1.78 6.95,-4.72 8.42,-8.96z"/>
   <path class="fil1" d="M6240.28 7284.12c55.08,7.11 117.59,27.58 137.52,79.8 4.56,11.98 6.79,31.29 6.88,57.79 0.07,27.11 0.15,53.69 0.38,79.73 0.07,21.55 7.33,24.26 21.63,8.18 3.01,-3.32 5.87,-6.95 8.65,-10.81 11.21,-15.45 30.67,-10.66 38.78,4.32 5.8,10.83 4.41,23.65 -4.09,38.48 -32.91,56.94 -83.36,83.13 -151.26,78.41 -96.65,-6.64 -127.16,-75.4 -124.08,-160.3 0.93,-25.96 0.85,-53.93 -0.23,-83.97 -1.15,-33.92 -17.69,-53.93 -49.6,-60.03 -2.54,-0.47 -3.86,-2.01 -3.86,-4.64l0 -44.11c0.08,-2.71 2.17,-5.03 4.87,-5.34 41.26,-4.01 48.82,-30.35 49.29,-68.59 0.54,-46.13 0.38,-89.15 -0.62,-129.1 -0.77,-32.52 -17.3,-52.46 -49.59,-59.95 -2.94,-0.69 -4.41,-2.47 -4.41,-5.48l0 -45.58c0,-3.16 1.62,-4.71 4.79,-4.71 28.97,-0.16 59.87,0.84 92.55,3.09 74.86,5.1 152.73,49.98 166.02,127.7 14.13,82.51 -12.82,141.92 -80.89,178.14 -18.54,9.9 -42.41,15.84 -63.19,22.88 -5.87,1.92 -5.72,3.32 0.46,4.09z"/>
   <path class="fil1" d="M3215.61 7477.8c-11.73,42.87 -0.14,63.26 40.18,78.64 8.57,3.32 13.59,8.89 14.91,16.84 3.63,20.71 -5.72,31.22 -28.04,31.6 -40.72,0.7 -81.28,0.92 -121.76,0.7 -15.52,-0.08 -34.77,-1.47 -42.88,-16.92 -8.88,-17.07 4.64,-29.44 19.25,-35.61 33.21,-13.99 54,-35.46 63.58,-69.77 39,-139.6 76.4,-275.49 112.32,-407.67 1.31,-4.87 2.63,-4.87 3.86,0 6.34,25.72 12.9,51.84 19.7,78.34 2.55,10.04 2.47,20.01 -0.23,29.9 -27.27,98.19 -54.24,196.22 -80.89,293.95z"/>
   <path class="fil1" d="M4540.14 7485.68c1.78,32.36 27.2,55.47 55.17,71.07 29.42,16.53 17.76,47.89 -14.53,48.36 -39.63,0.55 -81.5,0.62 -125.77,0.31 -20.17,-0.15 -42.88,-6.49 -35.39,-33.07 0.78,-2.77 2.32,-5.02 4.64,-6.64 6.26,-4.4 12.6,-8.72 19.16,-12.82 30.82,-19.54 43.81,-56.94 43.81,-94.71 0,-94.8 0,-188.28 0,-280.36 0,-7.03 1.16,-7.27 3.39,-0.62 13.83,40.33 27.58,79.42 41.41,117.19 5.18,14.14 7.65,29.13 7.34,44.89 -1.31,64.04 -1.08,112.87 0.77,146.4z"/>
  </g>
 </g>
</svg>
